<?xml version="1.0" encoding="utf-8"?>
<!-- Generator: Adobe Illustrator 25.0.0, SVG Export Plug-In . SVG Version: 6.00 Build 0)  -->
<svg version="1.1" id="Layer_1" xmlns="http://www.w3.org/2000/svg" xmlns:xlink="http://www.w3.org/1999/xlink" x="0px" y="0px"
	 viewBox="0 0 1263.7 183.2" style="enable-background:new 0 0 1263.7 183.2;" xml:space="preserve">
<g transform="translate(0.000000,1531.000000) scale(0.100000,-0.100000)">
	<path d="M6551.5,15268.2c0-2.3,2.3-5.6,5.1-7.5c7.9-4.7-5.1-11.2-23.8-11.2c-9.3,0-19.1,2.3-22.4,5.6c-4.2,4.2-7.9,4.2-15.8,0
		c-6.1-3.3-14.9-5.6-20-5.1c-5.1,0-31.2-0.9-58.3-2.3c-27-1.9-67.1-3.7-89.5-4.7c-21.9-0.9-42.9-3.3-45.7-5.1
		c-3.3-2.3-4.2-9.3-2.8-18.6c3.3-16.8-3.7-25.6-12.6-16.8c-2.8,2.8-8.9,5.1-13.5,5.1c-4.7,0-8.4,2.8-8.4,6.5
		c0,8.9,10.7,15.4,13.1,8.4c0.9-3.3,3.7-5.6,6.1-5.6c2.8,0,3.3,2.8,0.9,6.1c-1.9,2.8-3.7,8.4-4.2,11.7c-1.9,10.7-5.6,11.2-10.7,1.4
		c-5.6-9.8-15.8-8.9-28,2.8c-5.1,5.1-7.5,5.1-13.1,0.5c-7.9-6.1-8.9-6.5-33.1-7.5c-8.9-0.5-14.5-2.8-12.6-5.6
		c1.4-2.3-1.9-4.7-7.9-4.7s-27-1.4-46.6-2.8c-47.1-3.7-59.7-0.9-56.4,13.1c1.9,9.8,1.4,9.8-4.2,2.8c-8.9-10.7-46.1-23.3-52.7-17.7
		c-2.8,2.3-7.5,2.8-9.8,0.5c-5.6-5.1-50.8-17.7-76.4-21.9c-11.7-1.4-23.8-5.1-27-7.9c-3.3-2.8-24.2-5.6-45.7-6.1
		c-28.4-0.9-42.4-3.3-48-8.4c-8.9-8.4-28.4-10.3-28.4-2.8c0,5.6-22.4,3.3-35.9-3.7c-5.6-3.3-13.5-5.6-17.2-5.6c-4.2,0-7.5-3.3-7.5-7
		c0-5.1-5.1-7-18.6-7c-10.3,0-18.6,2.3-18.6,4.7c0,7.5-17.2,5.6-20.5-2.3c-1.4-3.7-6.5-7-11.2-7c-4.7,0-13.5-5.1-19.6-11.7
		c-9.8-10.7-11.2-10.7-16.8-3.3c-3.7,4.7-6.1,5.6-6.5,2.3c0-7.5-14.9-7.9-21.4-1.4c-3.7,3.7-7,2.8-11.2-2.3c-3.3-3.7-13.1-7-23.3-7
		c-11.7,0-18.6-2.3-20.5-7c-1.9-6.1-7.5-7-26.1-4.7c-17.2,1.9-26.1,0.5-35-5.1c-7-4.7-11.7-5.6-11.7-2.3c0,2.8-2.3,5.1-5.1,5.1
		s-3.7-4.2-1.9-9.3c2.8-9.3-4.2-13.1-9.3-4.7c-1.4,2.3-13.5-6.1-26.6-18.6c-13.1-12.6-25.2-21.9-27.5-21c-1.9,1.4-4.7,0.5-6.5-2.3
		c-1.4-2.3-5.6-4.7-9.3-4.7s-13.5-6.1-21.9-14c-14.5-13.5-41-19.6-41-9.3c0,2.8,4.2,4.7,9.3,4.7c5.1,0,9.3,3.3,9.3,7
		c0,18.2-28,1.9-35-20.5c-1.4-5.6-6.5-9.8-10.7-9.8c-4.7,0-13.1-3.3-19.1-7.5c-7.9-5.6-12.1-6.1-15.8-2.3c-7.9,7.9-12.1,6.1-9.3-4.2
		c1.4-5.1,0.5-9.8-1.4-9.8c-2.3-0.5-8.4-1.4-13.5-1.9c-5.1-0.5-17.2-8.4-27-18.2c-21-20.5-32.2-21.9-80.2-11.7
		c-12.6,2.8-32.6,6.1-44.3,6.5c-18.6,1.4-54.5,5.6-125.9,14c-11.7,1.4-33.1,4.7-48,7.9c-20,3.7-29.8,4.2-35.4,0.5
		c-5.1-3.3-10.7-3.7-14.9-1.4c-6.5,4.2-28.9,7.5-81.1,11.7c-15.4,0.9-40.6,4.2-55.9,7c-15.4,2.3-44.7,4.7-65.3,5.1
		c-20.5,0-49.9,2.3-65.3,4.7c-15.4,2.3-41.5,5.6-58.3,7c-16.8,1.9-32.6,5.1-35.4,7.5c-2.8,1.9-21.9,5.1-42.4,6.1
		c-34.5,2.3-38.2,1.9-48.9-8.4c-26.1-24.2-18.6-62.9,12.6-70.4c15.8-3.7,11.2-3.3,135.2-16.3c51.3-5.1,100.7-12.1,109.5-14.9
		c18.2-5.6,41-8.4,79.2-10.3c14-0.5,28-2.3,31.2-4.7c2.8-1.9,19.6-4.2,37.3-5.6c17.2-0.9,57.8-5.6,90-9.8
		c32.2-4.2,67.6-7.9,79.2-8.4c43.8-2.3,114.7-14,120.7-19.6c5.6-5.1,5.6-10.7-1.4-37.8c-14.5-61.1,3.7-131,45.7-173.9
		c42.4-42.9,78.8-69.5,97.4-69.9c4.2,0,7.9-1.9,7.9-4.7c0-2.3,4.2-4.7,9.3-4.7s10.7-3.3,12.1-7c1.9-3.7,5.6-7,9.3-7
		c3.7,0,10.3-1.9,14.9-4.2c7.9-4.2,83-28,121.2-38.7c24.2-6.5,38.7-22.4,25.2-27.5c-9.3-3.3-33.6-33.1-33.6-41
		c0-2.3-5.1-9.8-11.7-16.3c-6.5-6.5-11.7-13.5-11.7-15.8c0-2.3-4.2-7.9-9.3-12.6c-5.1-4.7-9.3-12.1-9.3-16.8s-4.2-9.3-8.9-11.2
		c-5.1-1.4-10.7-7.5-12.6-12.6c-1.4-5.6-10.3-16.8-18.6-25.2c-8.9-7.9-15.8-17.7-15.8-21.9c0-3.7-3.3-7.9-7-9.8
		c-3.7-1.4-7-5.1-7-8.9c0-3.3-3.7-10.3-7.9-15.4c-4.7-5.1-11.7-14.9-15.4-21.4c-17.2-29.8-40.1-59.7-45.7-59.7
		c-4.2,0-4.7-2.3-0.9-8.9c6.1-11.7,6.1-19.1,0-9.8c-4.2,6.1-6.5,5.1-16.3-6.1c-6.5-7-11.7-16.3-11.7-20s-2.3-6.5-5.1-6.5
		c-3.3,0-4.2-5.1-2.3-12.6c1.4-7.5,1.4-10.3,0-7c-3.7,7.9-11.2,2.3-7.9-6.1c1.4-3.7,0-7-2.8-7c-2.8,0-12.6-11.7-21.4-25.6
		c-9.3-14-18.6-25.6-21-25.6c-2.3,0-6.5-8.4-9.3-18.6c-2.8-10.3-7-18.6-9.3-18.6s-7-5.1-10.3-11.2c-19.1-34.5-24.7-43.8-36.8-59.2
		c-7.5-9.3-13.5-20-13.5-23.8c0-3.7-5.1-12.6-11.2-20c-6.1-7-15.4-21.9-21-32.6c-5.6-11.2-13.5-22.8-17.7-26.1
		c-4.2-3.7-9.8-11.7-12.6-18.2c-2.8-6.5-14.5-25.6-25.2-42.9l-20.5-31.7l-54.1,2.3c-30.3,0.9-64.8,4.2-77.8,7
		c-12.6,2.3-37.8,7-55.9,9.8c-17.7,3.3-34.5,7-37.3,8.9c-4.2,3.7-37.3,14-54.1,16.8c-4.2,0.9-13.5,4.2-21,7
		c-7.5,3.3-16.8,5.1-20.5,4.7c-4.2-0.5-12.6,4.7-18.6,11.2c-6.1,6.5-14.5,11.7-19.1,11.7c-4.2,0-10.3,3.3-13.5,7
		c-3.3,3.7-9.3,7-14,7c-10.3,0-79.2,44.7-79.2,51.3c0,2.3-4.2,4.7-9.8,4.7c-5.6,0-21,11.7-37.3,29.4c-46.1,47.5-76.4,97-89,144
		c-5.1,20.5-5.1,23.3,4.7,35c5.6,7.5,12.1,17.2,14.5,22.4c2.3,5.1,12.6,14.5,23.3,21c10.3,6.5,19.1,13.1,19.1,15.4
		c0,1.9,3.3,3.3,7,3.3c3.7,0,8.9,4.2,12.1,9.8c3.3,7,7.9,8.9,14.9,7c5.1-1.4,12.1-0.5,14.9,1.9s18.6,9.8,35.4,15.8
		c16.3,6.1,36.4,14,43.8,17.2c7.9,3.3,25.6,8.4,39.6,11.7c14,3.3,34,7.9,44.3,10.7c10.3,2.3,28.4,7,40.6,9.8s29.8,10.7,39.2,17.2
		c12.6,7.9,21.4,10.7,31.7,9.3c18.2-2.8,35.4,3.7,35.4,13.1c0,8.9,8.9,9.3,12.1,0c2.3-5.6,4.2-5.1,12.1,1.9
		c5.6,5.6,13.1,7.9,18.6,6.1c6.5-1.4,8.9-0.5,6.5,2.8c-1.4,2.8-0.5,6.5,2.3,8.4c3.7,1.9,3.3,4.2-0.9,7c-11.2,7-18.2,4.7-18.2-5.6
		c0-5.6-2.3-8.9-5.6-7.5c-3.3,0.9-5.6,7-5.1,13.1c0.5,6.1-0.5,8.4-1.4,5.6c-3.7-8.4-41-7.9-37.8,0c1.9,4.7-3.3,6.1-21.9,5.1
		c-13.1-0.9-29.8,0.9-37.8,3.7c-19.6,6.5-82.5-1.4-111.4-14.9c-16.3-7.5-32.2-10.3-55-10.3c-17.2-0.5-31.7-2.3-31.7-4.2
		c0-2.3-4.7-4.2-10.7-4.2c-5.6,0-14.5-2.8-19.6-6.5c-5.1-3.3-15.4-7.5-23.3-8.9c-39.6-7.5-58.3-14-58.3-20c0-3.7-4.7-6.5-12.1-6.5
		c-16.3,0-58.7-32.2-55.5-42c2.3-7-20.5-32.6-28.9-32.6c-6.1,0-24.7-20.5-24.7-26.6c0-2.8-3.3-7.5-7.5-11.2
		c-4.2-3.3-6.5-10.3-5.1-16.8c0.9-6.1,0-12.1-2.3-13.5c-4.2-2.8,0-44.3,6.5-62c2.3-6.1,9.8-18.6,17.2-28
		c7.5-9.3,14.9-26.1,16.8-37.8c1.9-11.7,7.5-24.7,12.1-29.4c5.1-4.7,8.9-10.3,8.9-12.6c0-5.6,27-32.2,30.3-28.9
		c1.4,1.4,2.3-0.9,2.3-5.1c0-9.8,26.1-33.6,36.4-33.6c4.2,0,10.7-6.1,14-13.1c6.5-13.5,38.7-36.8,48.5-35c3.3,0.9,6.1-1.4,6.5-4.2
		c0.5-3.3,0.9-7.9,1.4-10.7c0-2.3,4.2-4.7,9.3-4.7c4.7,0,11.2-2.8,14.5-6.5c2.8-3.7,8.4-5.6,12.1-4.2c3.7,1.4,6.5-0.5,6.5-5.1
		c0-4.2,2.8-7.5,6.5-7.5s18.2-6.1,32.2-14c14-7.5,26.6-12.6,28-10.7c1.9,1.4,4.2-0.9,6.1-5.1c1.4-4.2,7.9-7.5,14-7.5
		c6.1,0,11.2-2.3,11.2-4.7c0-2.8,5.6-7,13.1-9.3c14.9-5.6,32.6-13.1,44.7-19.6c5.1-2.8,24.2-5.6,43.4-6.1
		c28.4-1.4,35.9-3.3,42.4-11.7c5.6-6.5,15.8-10.7,33.6-13.5c14-1.9,29.8-5.6,35-8.9c14.9-8.4,82.5-16.3,86.7-9.8
		c2.3,3.7,3.7,3.7,6.1,0c1.9-2.8,11.2-5.1,20.5-5.1s26.1-3.3,37.3-7c19.6-7,49.9-3.7,72.3,7.9c4.7,2.3,28.9,5.1,53.1,6.5
		c24.7,1.4,48.5,4.2,52.7,6.5c4.2,2.3,28.9,5.1,55,6.5c35,1.9,52.2,4.7,65.3,11.7c9.3,5.1,25.6,10.3,35.9,11.2
		c10.3,1.4,33.1,8.9,50.8,17.2c18.2,8.9,35,15.4,38.2,15.4c3.3,0,4.7,2.8,3.3,6.5c-2.8,7.5,8.9,7.9,16.3,0.5c4.7-4.7,6.5-4.7,9.8,0
		c6.5,11.2,37.3,24.7,49.4,21.4c7.5-1.9,15.8,0.5,24.2,6.5c23.3,16.3,66.7,38.2,76,38.2c9.8,0,76,33.6,89,44.7
		c3.7,3.7,9.8,6.5,12.6,6.5c7.9,0,12.1-9.8,6.1-13.5c-2.8-1.9-7.9-16.3-10.7-32.2c-4.7-24.7-4.2-32.2,3.3-54.5
		c5.1-14,10.3-25.6,12.1-25.6c1.9,0,4.2-3.7,6.1-7.9c3.3-10.3,11.7-23.3,23.8-37.3c8.9-10.3,10.3-10.3,34-3.7
		c19.6,5.1,81.1,40.1,94.2,53.6c1.4,1.4,12.6,7.5,24.7,14c12.6,6.5,25.2,14.9,28,19.1c3.3,4.2,16.3,13.1,29.8,19.6
		c13.5,7,26.1,14.9,28,18.2c4.7,7.5,40.1,31.7,46.1,31.7c4.2,0,30.3,21.4,51.3,42c5.6,5.1,12.6,9.3,16.3,9.3
		c10.3,0.5,24.2,12.6,20.5,18.2c-1.4,3.3,0.9,5.1,6.5,5.1c5.6,0,9.8,1.9,9.8,4.2c0,2.3,5.6,6.5,13.1,9.3c13.1,5.1,15.8,7,53.6,32.2
		c25.2,16.3,33.1,14.9,37.3-7.5c7-33.1,9.8-41.5,20-55.5c6.1-7.9,11.2-17.7,11.2-21.4c0-14.5,50.3-45.2,74.1-45.2
		c15.4,0,37.8-17.2,37.8-29.4c0-18.2,29.8-30.3,79.2-31.7c39.2-0.9,149.6,22.4,158.5,33.6c1.4,1.4,10.7,5.6,21,8.9
		c47.5,15.4,82.5,29.4,97,39.2c8.4,6.1,21.9,12.1,29.4,14c7.5,1.9,27,9.8,43.8,17.7l29.8,14.5l7.5-11.2c3.7-6.1,14-19.1,22.4-28.9
		c7.9-9.8,14.9-19.6,14.9-21.4s5.1-6.1,11.7-8.9c13.5-6.1,83.4-3.7,102.1,3.7c6.1,2.3,12.6,2.8,14.5,0.9c1.4-1.9,5.1,0.5,7.5,5.1
		c2.8,4.2,7.5,7.9,10.3,7.9c3.3,0,9.3,3.7,13.1,8.4c10.7,11.7,24.2,21.9,33.6,25.6c4.2,1.4,7.9,5.1,7.9,7.9c0,2.3,3.3,4.7,7,4.7
		s7,2.8,7,6.5s1.4,7.5,3.7,8.4c1.9,0.9,22.8,23.3,46.6,50.3c24.2,27,49.4,55.5,56.4,62.9c7,7.9,25.2,30.8,40.1,51.3
		c15.4,20.5,30.3,39.6,33.1,42c2.8,2.8,9.8,11.7,15.8,20.5c6.1,8.4,17.2,22.4,25.6,30.3c7.9,7.9,15.8,18.2,17.7,22.8
		c1.4,4.2,6.1,7.9,9.3,7.9c3.7,0,10.3,4.2,14.9,9.3c4.7,5.1,17.7,15.4,28.9,22.4c10.7,7,20,14.9,20,18.2c0,2.8,3.7,6.5,8.4,7.9
		c4.2,1.4,13.5,7.9,20.5,14.5c13.5,12.6,37.3,22.8,78.3,33.1c67.1,17.2,83.9,22.4,114.2,32.6c37.8,13.1,39.6,13.1,39.6,5.1
		c0-7.5-24.2-31.2-31.7-31.2c-3.3,0-5.6-3.3-5.6-7c0-3.7-3.3-7-7-7s-8.9-4.2-11.2-8.9c-2.8-4.7-14.5-14.9-25.6-22.4
		c-26.1-17.2-72.7-59.7-72.7-66.2c0-2.3-4.2-6.1-9.8-7.5c-7.5-2.3-8.9-5.6-7-14.5c2.8-9.8,1.4-11.2-8.9-11.2
		c-16.8,0-47.1-16.3-56.4-29.8c-3.7-6.5-13.1-13.5-20-15.8c-7.5-2.8-18.2-12.6-24.2-22.4c-10.7-17.7-23.8-31.7-45.2-48.9
		c-6.1-4.7-10.3-11.2-9.3-14.5c1.4-3.3-2.8-9.8-8.9-15.4c-5.6-5.1-17.7-21.9-27-36.8c-12.1-21-14.9-29.4-11.2-34
		c4.2-4.7,3.3-6.1-4.7-6.1c-5.6,0-9.8-2.8-9.8-7.5c0-3.7-5.6-14.5-12.1-22.8c-6.5-8.9-14-23.8-15.8-32.6
		c-4.7-19.6,2.8-79.7,10.7-89.5c15.4-18.2,24.2-23.8,43.8-26.6c17.7-2.3,27,0,58.7,13.5c20.5,8.9,39.2,16.3,41.5,16.3
		c2.3,0,9.8,4.2,16.8,9.3c7,5.1,16.8,10.3,21.9,11.2c16.8,3.3,62.5,21.9,65.3,26.6c1.9,2.3,6.5,4.2,11.2,4.2c4.7,0,11.2,3.3,14.5,7
		c3.3,4.2,13.5,10.7,22.8,14.9c16.8,7.9,42.9,24.2,47.1,30.3c1.4,1.4,8.4,4.7,15.4,6.1c7,1.9,12.6,5.1,12.6,7.5
		c0,2.3,1.9,4.2,4.2,4.2c5.6,0,19.1-26.6,19.1-37.8c0-4.7,5.6-12.6,13.1-17.7c7-5.1,15.8-12.6,19.6-15.8
		c11.7-10.7,74.6-6.1,146.8,10.3c35.9,8.4,76.9,16.8,91.8,18.6c14.5,2.3,28.4,5.6,31.7,7.5c3.3,1.9,14,4.2,24.2,4.7
		c16.8,1.4,18.2,0.5,21-12.1c1.4-7.5,5.1-13.5,8.4-13.5c3.3,0,14-6.5,23.8-14.5c17.2-14,19.6-14.5,50.8-12.1
		c18.2,1.4,62.9,9.8,100.2,18.6c37.3,9.3,80.2,17.7,95.6,19.6c29.4,3.3,37.8,5.6,84.4,21c15.4,5.1,36.8,9.3,47.1,9.3
		c11.2,0,21.4,2.8,24.7,7c3.3,4.2,13.1,10.7,21.4,14.5c8.9,4.2,15.8,10.7,15.8,14c0,3.7,1.9,6.5,4.7,6.5c7,0,18.6-25.6,18.6-41
		c0-40.1,33.1-85.8,67.6-92.3c8.9-1.4,40.1,0.5,69,4.2c192.5,27,203.2,28,223.7,22.4c10.7-3.3,22.8-7.5,26.6-9.8
		c4.2-1.9,49.9-3.7,101.6-3.7s96-1.4,97.9-2.8c2.3-1.4,29.4-3.7,59.7-5.1s72.3-3.7,92.8-5.1c20.5-0.9,95.1-5.1,165.5-8.9
		c143.6-7.5,256.4-17.2,426.5-37.8c30.8-3.7,70.4-7.9,88.6-8.9c17.7-1.4,43.8-4.2,57.3-7c14-2.3,27-3.7,28.9-2.3
		c2.3,1.4,22.4-0.5,44.3-4.2c22.4-3.3,80.6-6.5,129.6-7c57.8-0.9,90.4-2.8,92.3-6.1c1.9-3.3,5.1-0.9,8.4,5.1
		c7,13.1,13.5,12.6,17.2-1.9c2.8-11.2,11.7-14,38.7-12.6c3.7,0,16.8-1.4,28.9-3.3c14.5-2.3,24.2-1.9,28,1.4c4.2,3.7,4.7,3.7,2.3-0.5
		c-2.3-4.2,0-6.1,6.1-6.1c4.7,0,9.8,1.9,10.7,4.7c0.9,2.8,10.3,2.8,27-0.5c51.7-10.3,76-10.7,82.5-1.4c3.3,4.7,6.1,6.1,6.1,3.3
		c0-13.5,28.9-20,90.4-20.5c66.2-0.9,81.1,1.4,90.9,15.4c4.2,6.5,7.9,7.5,11.2,4.2s2.8-7-1.4-11.7c-4.7-6.1-4.2-7.9,1.4-10.3
		c4.2-1.4,9.3-1.4,11.7,0s27.5,0,55.5-2.8c41-4.2,54.5-4.2,66.2,0.5c7.9,3.7,14.5,7.9,14.5,10.3c0,2.3,2.3,4.2,5.1,4.2
		c2.3,0,3.7-1.9,1.9-4.2c-4.7-7.9,8.9-12.1,38.7-12.1c23.8-0.5,28.9,0.9,27.5,7c-0.5,3.7,0.9,9.3,4.2,11.7
		c7.5,6.5-0.9,44.3-10.3,44.3c-7.5,0-8.9,7.5-1.4,11.7c6.5,4.2,17.2-10.7,21-29.4c3.7-18.6,8.4-21.4,34.5-21.9
		c27.5,0,32.2-8.9,5.6-10.3c-21.4-0.5-29.8-4.7-21-9.8c7-4.7,116.1-4.2,120.7,0.5c1.9,1.9,0,6.1-4.2,9.3c-6.5,4.7-6.5,7-0.9,14
		c6.1,8.4,6.5,8.4,11.2-0.9c2.8-5.1,5.1-13.5,5.1-18.2c0-8.4,1.9-8.9,16.8-5.6c8.9,2.3,23.3,1.9,31.2-0.5
		c23.3-6.5,54.5-5.1,57.3,2.8c2.3,6.1,4.7,6.1,15.4,0c11.7-5.6,81.6-8.9,179.9-7.9c10.3,0,41.5,0.5,69,0.9c28,0.5,53.1-1.4,55.9-3.7
		c9.8-7.9,35.9-11.7,42.4-6.1c5.6,4.7,22.8,6.1,63.4,4.7c6.5,0,15.4-3.7,20-7.9c7.9-7,9.3-7,16.8,3.3l7.9,10.7l7-9.8
		c6.1-9.3,12.1-9.8,155.7-13.1c133.3-2.8,176.7-3.3,204.2-1.9c4.7,0.5,9.8,5.1,12.1,10.7c2.8,7.9,4.2,8.4,6.5,2.3
		c1.4-3.7-0.5-9.8-3.7-12.6c-13.1-11.2-0.9-14.5,50.3-14c28.9,0,67.1-2.3,84.8-5.1c18.2-2.8,75-5.6,126.3-6.5
		c51.7-0.5,96.5-2.3,99.3-4.2c6.5-4.2,131-4.2,147.3,0c6.1,1.4,12.1,6.1,13.1,10.3c1.9,7,2.3,7,2.8,0c0.5-8.9,9.8-11.7,9.8-3.3
		c0,6.1,23.3,29.4,33.1,33.1c4.2,1.9,9.3,10.7,11.2,20.5c3.3,19.1-4.7,29.8-21.9,29.8c-4.7,0-9.8,2.8-11.2,6.5
		c-4.7,12.6-15.4,11.7-32.6-2.3c-12.1-9.8-21-13.1-27.5-11.2c-5.1,1.4-29.4,4.7-53.6,7.5c-24.2,2.3-57.8,6.1-74.6,8.4
		c-25.2,3.3-31.2,2.8-35.9-3.3c-5.1-6.1-6.1-6.1-6.1-0.5c0,3.7,7.5,14,16.3,22.8c9.8,9.3,16.3,20.5,16.3,27c0,7.9,1.9,10.7,7,8.4
		c3.7-1.4,8.9,1.4,11.7,6.1c3.3,6.5,2.8,9.3-2.3,11.7c-8.9,3.3-9.3,26.1-0.5,26.1c3.7,0,7.9-2.8,9.3-5.6c1.4-3.3,0.9,2.3-0.5,13.1
		c-1.9,13.5-0.5,21,5.1,26.6c4.2,3.7,7.5,8.9,7.5,11.2c0,2.3,4.2,12.1,9.3,22.4c7,13.5,7.9,19.6,3.7,24.2
		c-3.7,4.7-3.7,11.2,0.5,25.2c7,23.3,3.3,36.8-10.7,36.8c-14.9,0-17.2,4.2-8.4,14.5c7,7.9,7.9,7.9,15.8,0.9c7.9-7,8.4-7,8.4,1.9
		c0,5.1-4.7,13.1-10.3,16.8l-10.7,7.5h10.7c14,0.5,14.9,23.3,0.9,27c-11.7,3.3-12.1,9.3-0.9,13.1c12.6,3.7,23.3,37.8,15.8,49.4
		c-3.3,4.7-5.6,14.9-5.6,22.8c0,15.4-11.7,37.3-20,37.3c-2.8,0-8.4,3.3-13.1,7.5c-12.1,11.2-18.2,4.2-18.2-21.9
		c0-17.2,1.9-22.8,7-22.8c10.3,0,8.4-7.9-3.3-16.3c-9.8-6.5-11.2-6.5-15.8,0c-5.6,7.9-13.5,9.8-8.9,2.3c1.4-2.8-1.9-6.5-7.9-8.9
		c-6.1-2.3-15.4-10.7-21.4-18.6c-5.6-7.9-14.9-14.5-20-14.5c-7.5,0-8.9-1.9-6.5-9.3c3.7-11.2-9.3-18.2-17.7-9.8
		c-2.8,2.8-13.1,5.1-22.4,5.1c-30.8,0-37.3,10.3-40.1,60.6c-2.3,48.5-10.7,76-21.4,71.8c-3.7-1.4-7.9,0.9-9.3,4.7
		c-3.7,9.8-28.4,9.8-36.4-0.5c-4.7-5.1-6.5-22.4-7-56.9c0-53.6,3.3-74.6,14.5-82.5c3.7-2.8,7-6.5,7-8.4c0-6.1,20.5-21,28.9-21.4
		c4.2,0,9.3-1.9,10.7-4.7c1.4-2.3,7-4.7,12.1-4.7c4.7,0,8.9,2.3,8.9,4.7c0,2.8,2.3,4.7,4.7,4.7c2.8,0,4.7-3.3,4.7-7
		c0-11.7,14.5-16.3,27.5-7.9c8.4,5.6,12.1,6.1,13.5,1.9c0.9-3.3,3.7-4.2,6.1-2.8c2.8,1.4,7,0.5,10.3-1.9c3.3-2.8,11.7-4.7,18.6-4.2
		c10.3,0.9,12.6,2.8,10.7,9.3c-0.9,4.7,0.9,9.8,4.2,10.7c3.3,1.4,7,7,8.4,12.1c1.4,5.1,4.7,7.9,7,6.5c2.8-1.4,5.6-0.5,6.5,2.8
		c1.4,3.3,5.6,4.2,10.3,2.3c6.5-2.8,7.9-7,6.5-19.6c-1.4-10.7,0.5-16.8,4.7-18.6c5.6-1.9,6.1-13.1,3.7-62
		c-4.7-86.7-12.1-110.9-38.2-126.8c-8.9-4.7-15.8-11.2-15.8-14c0-2.3-3.3-4.7-7.5-4.7c-3.7,0-10.3-7.5-14-16.8
		c-3.7-9.3-8.4-15.4-9.8-14s-5.6-0.9-8.4-5.1c-5.1-7-7.9-7-18.2-2.3c-18.2,7.9-20,7.5-26.1-10.7c-2.8-8.9-7-16.3-8.4-16.3
		c-5.1,0-15.8,7.9-15.4,11.2c0.9,7.5,0,7.9-7,2.3c-6.1-4.7-7.9-4.7-11.7,0.9c-3.7,5.1-6.5,4.2-16.3-7l-11.7-13.1l-53.1,3.3
		c-55.5,3.3-97.4,0-85.8-7.5c5.1-2.8,5.1-5.1,0.9-9.3c-7.5-7.5-19.6-1.9-24.7,12.1c-3.7,10.3-7.5,12.1-24.2,12.1
		c-50.8,0-97,2.3-99.8,5.1c-1.4,1.9-7.9,1.4-14-0.9c-7-2.8-20-2.3-35.4,0.9c-26.1,5.6-70.4,7.9-83.9,4.7c-4.7-0.9-8.4-5.1-8.4-9.3
		c0-6.5-0.5-6.5-5.6,0c-4.7,5.6-19.1,7.9-59.7,10.3c-85.8,4.7-102.5,7.5-102.5,16.8c0,4.2-8.4,14.5-18.6,22.8
		c-19.6,15.8-23.8,26.6-10.7,29.4c6.5,1.4,7.9,7.9,8.9,42c0.9,33.1,0,40.1-5.6,37.8c-3.7-1.4-6.5,0-6.5,2.8s2.3,5.1,4.7,5.1
		c2.8,0,4.7,7.5,4.7,16.3c0,19.1,9.8,25.6,24.7,16.8c7.5-4.7,9.8-4.7,13.1,0.5c3.3,4.7,5.6,5.1,13.5,0.5c12.1-7.9,14-7.5,14,0.9
		c0,4.2,2.8,7,6.1,6.5c13.1-1.4,17.2,0.9,17.2,10.3c0,7.9,2.3,9.3,9.3,7.5c7.5-1.9,16.8,4.2,37.3,23.8c23.3,21.9,28,28.9,28,41.5
		c0,9.3-2.8,16.8-6.5,18.2c-9.3,3.7-3.7,15.8,7,15.8c5.1,0,10.7-4.7,13.1-10.3l3.7-10.3l5.6,9.8c7,14,6.5,19.1-2.8,21.4
		c-7.5,1.4-7.5,2.3,0.9,5.1c32.2,12.1,32.2,12.1,23.3,18.6c-7.5,5.6-7.5,6.1-0.5,8.9c6.1,2.3,7.5,7.9,5.6,30.3
		c-1.9,28.4-11.2,51.7-27.5,69.9c-7.5,7.9-13.1,9.8-22.8,7.9c-7-1.9-13.1-1.4-13.1,0.9c0,2.3-8.4,4.2-18.6,3.7
		c-18.2,0-18.6-0.5-25.6-24.2c-8.4-28-21-34.5-21-10.7c0,16.3-0.9,16.8-19.6,6.1c-13.1-7.9-14-9.8-12.1-33.1
		c2.3-24.7-2.8-35.9-10.7-23.8c-2.3,3.7-4.2,14.5-4.2,24.2c0,16.3-5.6,22.4-11.7,12.6c-6.5-10.7-10.3-3.3-11.2,21.9
		c-0.5,29.8-0.9,30.8-23.8,38.2c-14,4.7-17.7,4.2-27.5-3.3c-6.5-4.7-13.5-14.9-15.4-22.4c-4.7-14.5-5.1-260.1-1.4-382.7
		c2.3-74.6,2.3-76-7.5-76c-5.1,0-13.1-1.9-17.2-3.7c-4.7-2.3-14.9-1.4-24.2,1.9c-8.9,3.3-13.5,6.1-10.3,6.1c2.8,0.5,5.6,2.3,5.6,4.2
		c0,4.7-17.2,4.2-21.9-0.9c-1.9-1.9-0.5-5.1,3.3-7.5c6.1-3.7,6.1-4.7,0.5-4.7c-3.7,0-10.7,3.7-15.4,7.9c-6.5,5.6-19.1,8.4-46.1,9.3
		c-36.8,1.4-37.3,0.9-34.5-9.3c1.9-5.6,1.4-7.9-0.9-5.1c-5.1,7-23.3,12.6-29.4,8.9c-2.8-1.9-3.3-6.1-0.9-10.7
		c2.3-4.2,2.8-13.1,1.4-19.1c-2.8-10.7-3.3-10.7-11.2-2.8c-4.7,4.7-15.4,9.8-23.3,11.7l-14.9,3.7l17.7,0.5
		c21.4,0.5,22.8,9.8,1.4,9.8c-11.7,0-18.6-3.3-25.2-11.2l-8.9-11.7l-0.5,14c-0.5,12.1,1.4,14,18.2,16.3c11.7,1.9,17.2,4.7,14.5,7.5
		s-10.7,2.8-20.5,0c-16.3-4.7-92.3,1.4-106.3,7.9c-3.7,1.9-12.1,1.9-18.6,0c-7-1.9-8.4-3.3-3.7-3.7c5.1-0.5,9.8-7,12.6-17.7
		c6.5-22.8,6.5-27-0.9-33.6c-9.3-7.5-17.2,3.3-17.2,23.8c0,17.7-2.3,20-15.8,14.9c-8.9-3.3-9.8-14-1.4-17.2
		c11.2-4.2-0.9-8.4-23.8-8.9c-28.9,0-42.4,6.5-21.9,10.7l14,3.3l-12.6,0.5c-7.5,0-13.1,2.8-13.1,5.1c0,2.8-6.5,8.9-14.5,13.5
		c-11.7,7-22.4,8.4-65.3,7.5c-28-0.5-50.8,0.9-50.8,3.3c0,6.1-10.3,4.2-15.8-2.8c-4.2-5.6-17.2-6.1-76.9-2.8
		c-39.6,2.3-74.6,2.8-77.8,1.4c-9.8-3.7-7.9-9.3,3.7-12.6c8.4-1.9,9.3-3.7,5.1-7.9c-4.7-4.7-7.9-4.2-15.4,2.8
		c-5.1,4.7-9.3,12.1-9.3,16.3c0,5.6-5.1,8.9-17.2,11.2c-26.6,4.2-48,3.3-48-1.9c0-2.3-6.1-4.7-14-4.7c-7.5,0-14,1.9-14,4.2
		c0,6.1,40.6,33.1,48.9,33.1c3.7,0,8.9,4.2,11.7,9.3c2.8,5.1,7.5,9.3,11.2,9.3c3.3,0,10.7,8.9,17.2,20c9.8,17.2,11.2,25.6,11.7,71.3
		c0.5,46.1,1.9,53.1,10.7,62c11.7,11.7,12.1,18.6,3.3,30.8c-3.7,5.1-5.6,11.7-4.2,14.9c1.4,3.3,0,8.9-2.3,12.1
		c-2.8,3.3-4.7,15.4-4.2,26.6c0.5,12.6-1.4,21-5.1,22.4c-7,2.3-7.5,15.8-0.9,22.4c3.7,3.7,3.3,13.5-0.9,32.6
		c-5.6,24.7-7.5,27.5-19.1,28.9c-9.8,1.4-12.6,4.2-12.6,12.6c0,6.1-1.9,12.6-4.7,14c-2.3,1.4-4.7,0.5-4.7-1.9c0-2.8-3.3-5.1-7-5.1
		s-7,2.3-7,5.1c0,2.3-1.9,3.3-4.7,1.9c-2.3-1.4-4.7,1.4-4.7,6.5c0,11.7-6.1,12.6-14,2.8c-4.7-5.6-6.5-5.6-12.1,0
		c-3.7,3.3-6.5,8.4-6.5,11.2c0,5.6-14.5,1.4-20-6.1c-2.8-3.7-4.7-3.3-6.5,0.9c-0.9,2.8-4.2,4.2-7,2.8c-2.8-1.9-6.5-0.5-8.4,2.3
		c-1.9,3.3-8.9,6.1-15.4,7c-7,0.5-14,2.8-15.8,4.2c-6.1,6.1-14,3.3-19.1-7l-5.1-10.7v11.7c-0.5,6.5-2.3,9.3-4.2,6.5
		c-5.1-7.5-18.6-11.2-20.5-5.6c-3.3,9.8-20-6.1-30.8-29.4c-9.8-21.4-14-25.2-27.5-23.3c-3.3,0.5-6.1-2.8-6.1-7.5
		c0-4.7-4.2-12.1-8.9-16.3c-5.1-4.7-10.3-16.8-12.1-31.7c-2.8-21-1.9-25.2,6.5-33.1c5.6-5.1,9.8-11.7,9.8-14.5c0-3.3,2.3-2.8,7,0.9
		c6.1,4.7,7,4.2,7-4.2c0-5.1,2.3-9.8,4.7-9.8c2.8,0,4.7-3.3,4.7-7c0-3.7,6.5-7.9,16.3-9.8c8.9-1.4,14.9-4.7,13.5-7
		c-2.3-4.2,4.2-6.1,16.3-4.7c3.3,0.9,4.7-0.9,3.3-3.3c-5.1-8.9,23.8-16.3,39.6-10.7c18.6,6.5,18.2,6.5,15.4-1.4
		c-2.3-5.6,15.8-23.8,20-20c0.5,0.9-0.9,8.9-3.3,17.2c-3.7,14-3.3,17.2,5.1,25.6l9.8,9.3l-2.8-10.3c-2.3-7.5-0.9-10.7,5.1-12.1
		c6.5-1.9,6.1-2.3-2.3-2.8c-9.3-0.5-9.8-1.9-5.6-9.8c5.1-9.8,18.6-13.1,18.6-4.2c0,3.3,3.7,8.4,8.4,11.7c7.5,6.1,7.5,6.1,0,6.5
		c-6.1,0-8.4,3.7-8.4,14c0,7.9-0.9,14-2.3,14c-5.1,0-28.4-12.1-31.7-16.3c-1.9-2.8-3.3-0.5-2.3,4.7c1.4,7.9-1.4,9.3-17.2,9.3
		c-10.3,0-21.9,2.3-25.6,4.7c-3.7,2.3-13.1,7.5-21,11.7c-18.2,9.3-39.2,48-32.2,59.7c2.8,4.2,9.3,8.4,14.9,9.3
		c5.1,0.9,11.7,7.5,14.9,15.4c3.7,8.4,8.4,13.1,12.1,11.7c3.3-1.4,7.9,2.8,10.7,10.3c4.2,11.7,4.2,11.7,4.7,2.3
		c0.5-10.7,15.8-15.4,21-6.5c2.8,4.7,22.4,3.7,48.9-2.3c10.7-2.3,14.9-1.9,13.1,1.4c-1.9,2.8,0.5,7.9,4.7,11.2
		c6.5,5.6,7,5.1,4.2-4.2c-2.3-6.1-1.4-10.3,1.4-10.3c7.9,0,20.5-22.8,21.4-38.7c1.9-22.8,7.5-40.1,14-44.3c4.7-2.3,5.1-8.4,1.9-26.6
		c-2.3-12.6-3.3-33.6-1.4-46.6c1.9-12.6,2.8-32.2,2.3-42.9c-0.5-10.7,1.4-24.2,4.2-29.8c3.3-5.6,6.1-15.8,7-22.4
		c0.5-6.5,2.8-19.6,4.7-28.4c2.8-13.5,2.3-15.4-2.8-10.3c-10.3,9.8-13.5,6.5-13.5-14.9c0-21-4.7-26.1-23.8-26.1
		c-4.7,0-8.9-3.3-8.9-7c0-9.3-4.7-8.9-16.3,2.3c-9.3,8.4-10.7,8.9-16.3,2.3c-7.9-9.8-14-8.9-14,2.3c0,5.1-1.9,9.3-4.7,9.3
		c-2.3,0-4.7-2.3-4.7-5.1s-4.2-4.2-8.9-2.8c-6.1,1.4-9.8-0.9-11.7-7.5c-1.9-7.9-3.3-8.4-9.3-3.3c-4.2,3.3-7.5,8.9-7.5,12.1
		c0,7.9-7.5,8.4-12.1,0.9c-2.3-3.7-4.7-2.8-7,3.7c-3.3,8.4-3.7,8.4-3.7,0c-0.5-6.5-1.9-7.5-6.5-3.3c-3.7,2.8-7.9,3.7-9.3,1.9
		c-1.9-1.4-3.3,3.7-3.3,12.1c0,12.1-1.9,14.9-7.9,13.5c-4.7-0.9-8.4-5.1-8.4-9.3c0-4.2-6.1-14.5-13.5-21.9
		c-7.5-7.9-13.1-14.9-11.7-15.8c10.7-7,48.5-21.9,55.5-21.9c9.8,0,13.1,7.5,4.7,10.3c-3.3,0.9-2.3,5.1,1.9,10.7
		c5.6,7.5,7.9,8.4,12.6,3.7c4.7-4.7,4.7-6.1,0.5-6.1c-3.3,0-5.6-2.3-5.6-5.1c0-2.8,2.8-4.2,6.5-2.8c4.2,1.9,5.6,0,4.2-5.6
		c-1.4-5.6,1.4-9.8,8.9-12.1c8.4-3.3,4.7-4.2-16.3-5.6c-17.2-1.4-25.6-3.7-23.8-7c4.7-7.5-7.9-12.6-20.5-7.9
		c-7.9,2.8-13.5,2.8-18.2-0.9c-5.1-4.7-7-3.7-9.3,4.2c-3.3,13.1-31.2,22.8-41,14.9c-3.7-3.3-7-8.9-7-12.1c0-3.7-1.4-6.5-2.8-6.5
		c-3.7,0-16.3,13.1-16.3,17.2c0,1.9-6.5,3.3-14.9,2.8c-7.9-0.5-16.3,1.4-17.7,4.2c-1.9,2.3-17.2,6.1-34.5,7.5
		c-25.6,1.9-31.2,0.9-29.4-4.2c1.4-3.7,7.9-6.1,14.9-5.6c19.1,1.4,12.1-9.3-8.9-13.5c-21-4.7-21.9-4.2-22.8,15.4l-0.9,14.9
		l-45.2,1.9c-38.2,1.4-45.2,0.9-45.2-5.6c0-3.7-3.3-7-7-7c-3.7,0-7,3.7-7,8.9c0,6.1-4.2,9.3-14,10.7c-7.5,1.4-15.8,0.5-18.6-0.9
		c-2.8-1.9-16.8,0-30.8,3.7c-22.4,6.5-26.6,6.5-30.3,0.5c-2.8-4.7-4.2-4.7-4.2-0.5c0,2.8-1.9,5.6-4.7,5.6c-2.3,0-4.7-3.3-4.7-7
		c0-8.9-7.9-8.9-12.6-0.5c-2.3,4.2-17.7,8.9-41,12.1c-61.5,8.4-111.4,13.1-117.9,10.3c-3.7-0.9-17.2,0.9-30.3,5.1
		c-38.2,11.7-96.5,17.2-119.8,12.1c-15.8-3.7-24.2-3.3-37.3,2.3c-16.8,7-37.3,10.3-109.5,16.8c-22.8,2.3-72.3,7.5-109.5,11.7
		c-106.7,11.2-160.8,15.4-174.3,13.1c-7-1.4-17.7,0-23.8,3.3c-6.1,3.3-14.5,4.7-18.2,3.3c-4.2-1.9-23.8-0.9-43.8,1.9
		c-19.6,2.3-52.7,5.6-73.2,6.5c-20.5,0.9-50.8,3.3-67.6,4.7c-16.8,1.9-48,3.7-69.9,4.7c-21.9,0.9-53.1,3.7-69.9,6.5
		c-56.4,8.9-101.2,10.3-159,5.1c-31.7-2.8-67.1-6.1-78.8-6.5c-21.4-1.9-81.1-9.3-112.8-14.9c-16.8-2.3-17.7-1.9-17.7,9.3
		c0,19.1,32.2,68.1,45.2,68.1c11.7,0,7,26.6-6.5,39.6c-7,6.5-15.4,11.7-18.6,11.7c-2.8,0-9.8,5.6-15.4,12.6
		c-7.9,10.3-13.5,12.6-28,12.6c-18.6-0.5-24.2-4.2-48-29.8c-45.7-48.9-38.7-45.2-83-45.2c-21.9-0.5-44.3-2.8-49.9-5.6
		c-11.2-6.1-119.8-24.7-184.6-31.2c-29.8-3.3-37.3,1.4-32.2,20c1.4,6.5,0.5,10.7-3.3,10.7c-2.8,0-14.5,7.5-25.6,16.3
		c-28.4,23.3-42.4,26.6-72.7,15.8c-13.5-4.7-26.6-12.1-28.9-15.8c-1.9-3.7-8.4-7-13.5-7c-5.6,0-13.5-3.3-17.7-7
		c-4.2-3.7-15.8-7.9-25.6-9.3c-10.3-1.4-25.2-5.1-33.1-7.5c-8.4-2.3-20.5-3.3-27-1.4c-6.5,1.4-14.9,0.9-18.2-1.9
		c-2.8-2.3-17.7-4.7-33.1-5.1c-14.9,0-29.8-2.3-33.1-5.1c-9.3-7.9-56.4-11.7-60.1-5.1c-5.1,8.4,2.3,14.5,76.4,59.7
		c10.7,6.5,12.1,10.7,12.6,34.5c0.9,24.2-0.5,28.4-11.2,36.8c-6.5,5.1-14.5,9.3-17.7,9.3c-3.3,0-11.7,5.6-18.6,12.1
		c-13.5,12.6-32.2,13.1-45.7,1.9c-2.8-2.8-14.9-13.1-26.6-23.3c-11.7-10.3-23.3-18.6-26.6-18.6c-2.8,0-8.9-4.7-12.6-9.8
		c-4.7-7-9.8-9.3-16.8-7.5c-6.5,1.9-12.6-0.5-17.7-7c-16.3-19.6-20.5-22.4-35-22.8c-8.4-0.5-19.1-1.4-24.2-1.9
		c-11.2-1.4-45.7-15.8-48.9-20.5c-4.2-6.1-47.5-28.4-54.5-28.4c-3.7,0-12.1-6.1-18.6-14c-6.1-7.5-14.5-14-18.2-14
		s-11.2-4.2-16.8-9.3c-5.6-5.1-13.1-9.3-16.3-9.3c-3.7,0-14.9-4.2-25.6-9.8c-10.3-5.1-23.3-10.7-28.9-12.1
		c-5.1-0.9-14.5-3.3-20.5-4.7l-10.7-2.8l7.5,18.2c9.3,22.8,28.4,51.7,45.2,68.5c7.5,7,13.1,15.8,13.1,19.6c0,3.7,3.3,7,7,7
		s7,1.9,7,3.7c0,2.3,9.3,10.7,20.5,19.1c11.2,8.9,21.4,19.6,22.8,23.8c1.4,4.7,9.3,12.1,17.7,16.3c8.4,4.7,23.3,16.3,32.6,26.1
		c9.8,10.3,19.1,18.2,21,18.2c1.9,0,6.5,3.3,10.7,7c6.5,6.1,19.6,16.8,69.5,58.7c6.1,4.7,12.1,8.9,13.1,8.9
		c2.8,0,10.3,6.1,33.6,27.5c9.3,8.4,24.7,21,33.1,28c8.9,6.5,27,21.9,39.6,34.5c13.1,12.1,25.2,21.9,26.6,21.9
		c3.7,0,33.6,25.6,58.3,50.3c10.7,10.7,21.9,19.6,24.2,19.6c2.8,0,7.9,2.8,11.2,6.1c7.5,7.5,69,49.4,88.6,60.1
		c7.5,4.2,17.2,10.7,21.4,14c4.2,3.7,16.3,10.7,26.6,15.8c24.7,12.1,48.9,30.3,48.9,37.3c0,2.8,3.3,7.9,7,11.2
		c9.8,7.9,8.9,24.2-2.3,34c-5.1,4.2-9.3,10.7-9.3,14.5c0,8.4-36.4,32.2-43.4,28.4c-16.8-8.9-28-15.8-37.3-24.2
		c-5.6-5.1-16.3-11.2-24.2-12.6c-7.5-1.9-18.6-7.9-24.2-13.1c-7.5-7-18.2-10.3-35-11.2c-19.6-0.9-26.6-3.7-34-12.6
		c-11.7-14-27.5-22.4-46.1-24.7c-7.9-0.5-26.6-4.7-41.5-8.4c-14.9-4.2-31.2-7.5-36.4-7.5c-8.9,0-12.1-0.9-40.6-15.4
		c-8.9-4.2-19.6-7.9-24.7-7.9c-4.7,0-8.9-1.9-8.9-4.7c0-4.7-29.4-14-45.2-14c-6.5,0-10.7,2.8-10.7,7c0,3.7,2.3,7,4.7,7
		c2.8,0,4.7,2.8,4.7,6.5c0,3.7,13.5,20.5,30.3,37.3c16.8,16.8,30.3,33.6,30.3,37.3c0,3.7,4.7,7.5,10.3,8.4
		c5.6,0.9,13.1,6.1,15.8,11.7c2.8,6.1,8.4,14.5,12.6,19.1c4.7,4.7,7.9,11.2,7.9,14s3.7,7.9,8.4,11.2c8.9,7,17.2,19.1,24.7,36.4
		c5.1,12.6,13.5,22.4,45.7,52.7c39.2,36.8,56.4,56.9,67.1,77.4c5.6,11.2,23.8,35.9,40.6,55.5c42,48,52.2,64.3,61.5,96.5
		c7.5,26.6,7.5,28.4,0,35c-4.7,3.7-9.8,10.7-11.7,15.4c-1.4,4.2-7,7.9-11.7,7.9c-4.7,0-12.6,4.2-17.2,9.3
		c-17.7,19.6-41,6.1-64.8-37.3c-14.5-27-58.3-83.9-64.3-83.9c-1.9,0-3.7-3.3-3.7-6.5c0-3.7-6.1-16.3-14-27.5
		c-7.5-11.7-14-22.8-14-24.7c0-5.6-25.6-29.8-31.2-29.8c-6.1,0-25.2-21-21.9-24.2c1.4-1.4-7-10.7-18.6-20.5s-21.4-20-21.4-22.8
		s-6.5-10.3-14.5-15.8c-11.2-8.4-13.1-11.7-8.4-14.9c5.6-3.3,5.1-4.2-0.5-4.2c-3.7,0-14-7.5-22.8-16.3c-8.9-8.9-18.6-16.3-21.9-16.3
		c-3.7,0-6.5-3.7-6.5-8.9c0-4.7-3.3-11.2-7.5-14.5c-3.7-3.3-6.5-10.7-5.6-16.8c1.4-11.2-26.1-48.5-36.4-48.5
		c-2.8,0-7.9-2.8-10.7-6.5c-3.3-3.7-11.7-8.4-19.1-9.8c-7.5-1.9-14.9-6.5-16.3-10.7c-1.4-4.2-14-20.5-28-35.9
		c-14-15.4-25.6-29.4-25.6-31.7c0-7-29.8-35.9-37.3-35.9c-3.7,0-11.2-7.5-15.8-16.3c-4.7-8.9-12.6-17.2-17.2-18.6
		c-5.1-1.9-8.9-4.7-8.9-7c0-5.6-35.9-23.3-47.5-23.3c-12.1,0-46.6-9.8-52.7-14.9c-2.3-1.9-13.1-3.7-23.8-3.7
		c-11.2,0-22.8-2.8-26.6-7c-3.7-3.7-7.9-5.6-8.9-4.2c-1.4,0.9-8.4,0-15.8-3.3c-21.4-7.9-76.4-21.4-103.9-24.7
		c-13.5-1.9-28-6.5-31.7-10.3c-3.7-3.3-11.2-6.5-16.8-6.5c-5.6-0.5-18.6-4.2-28.9-9.3c-10.3-5.1-24.7-9.3-32.6-9.3
		c-7.5,0-30.3-5.1-50.3-11.7c-20-6.5-39.6-11.7-43.4-11.7s-11.2-4.2-16.8-9.3c-13.1-12.1-42.9-12.6-51.3-0.9
		c-7.9,11.2-56.4,21-76,15.4c-7.9-1.9-19.6-1.9-26.6,0.5c-8.9,3.3-16.3,2.3-26.1-2.8c-7.5-3.7-22.8-8.9-34-10.3
		c-11.2-1.9-29.8-8.4-41-14.5c-11.2-5.6-23.8-10.7-28-10.7s-14.9-8.4-23.8-18.6s-19.6-18.6-23.8-18.6c-3.7,0-12.1-5.1-18.2-11.7
		c-6.1-6.5-13.5-11.7-16.3-11.7c-3.3,0-10.7-4.7-17.2-10.3c-6.1-6.1-20-16.8-30.3-23.8c-10.7-7.5-27.5-22.8-37.3-35
		c-9.8-11.7-25.6-29.4-35-39.6c-9.8-10.3-17.7-22.4-17.7-27c0-5.1-1.9-8.9-4.7-8.9c-2.3,0-4.7-3.7-4.7-7.9
		c-0.5-13.5-18.2-48.9-22.8-45.7c-5.6,3.3-3.3,31.7,3.3,48.9c2.8,6.5,10.3,19.6,16.8,29.4s12.1,18.6,12.1,20.5c0,1.4,6.5,10.3,14,20
		c7.9,9.8,14,19.1,14,21s4.2,8.9,9.3,15.8c5.6,8.4,8.9,19.6,7.9,32.2c-0.5,10.7-0.9,19.6-1.4,19.6c-15.4,0-53.1,12.1-61.1,19.6
		c-10.3,9.8-11.2,9.8-28.4,1.9c-12.1-5.6-19.6-12.6-23.3-22.8c-4.2-11.7-10.3-16.8-27.5-23.3c-39.6-15.4-53.1-23.8-67.6-41.5
		c-7.5-9.8-15.8-17.7-18.6-17.7s-14.5-7-26.6-15.4c-12.1-8.9-27-17.2-34-18.6c-6.5-1.9-22.4-12.6-35-24.2
		c-12.1-11.7-23.8-21-25.6-21c-1.9,0-2.3-2.8-1.4-5.6c1.4-3.3,0.5-8.9-1.9-12.6c-3.7-5.6-7-6.1-16.3-1.4
		c-10.3,4.7-13.1,3.7-22.4-7.9c-6.1-7-20.5-17.2-32.6-22.8c-11.7-5.6-22.8-12.1-24.7-14.9c-1.4-2.3-6.5-4.7-11.2-4.7
		c-4.2,0-14-6.1-21.4-14c-7.5-7.5-14.9-14-17.2-14c-5.6,0-66.2-37.3-71.8-44.7c-2.8-3.7-11.7-7.9-20-9.3c-12.6-2.8-14.5-1.9-14.5,7
		c0,5.1,6.5,22.8,14,38.7c7.9,15.8,14,31.7,14,35c0,3.7,2.8,7.5,6.5,8.9s7.9,7.5,9.3,14c1.9,6.1,5.1,11.2,7.5,11.2
		c2.8,0,4.7,3.3,4.7,7c0,8.4,30.3,56.9,74.6,119.3c11.7,16.3,26.1,38.2,32.6,48.9c14.5,23.8,27,42,40.6,60.1
		c16.3,21,16.8,22.4,26.6,41c5.1,9.3,10.3,17.2,12.6,17.2c1.9,0,7.9,7.9,13.5,17.2c11.7,20,9.3,38.7-4.7,38.7
		c-5.1,0-13.5,4.2-18.6,9.3c-5.1,5.1-12.6,9.3-16.8,9.3c-18.6,0-43.4,11.2-48.9,22.4c-8.4,15.4-26.6,34-43.8,44.7
		c-7.5,5.1-16.8,13.1-20,17.7c-3.3,4.7-8.9,8.4-12.6,8.4c-3.7,0-9.3,4.2-12.6,8.9c-7.9,10.7-53.6,42.4-61.5,42.4
		c-3.3,0-12.1,5.1-19.6,11.7c-7.5,6.5-17.7,11.7-22.8,11.7c-5.6,0-11.7,1.9-14,4.2c-3.7,3.3-72.7,30.3-101.2,39.6
		c-11.7,3.7-10.3,13.5,3.3,29.8c6.5,7.9,11.7,15.8,11.7,18.2c0,2.8,9.3,14.5,21,26.6c11.7,12.6,21,24.2,21,26.1
		c0,1.9,9.8,13.5,21.4,26.1c11.7,12.6,24.2,29.4,28.4,37.8c3.7,8.4,13.5,20,21.9,26.6c8.4,6.5,18.2,17.7,21,25.6
		c10.3,24.2,22.4,26.1,135.2,20.5c55.5-2.8,105.8-5.6,112.3-5.6c6.5-0.5,27.5-1.4,46.6-2.3c85.8-5.1,217.7-7.9,340.3-7.9
		c73.2,0,173.9,0,223.7,0s93.2,0,95.6,0.5c2.8,0.5,44.7,1.4,93.2,2.8c51.3,0.9,89,3.7,90,6.5c0.9,2.8,5.1,2.8,10.7-0.5
		c7-3.3,11.2-3.3,15.4,0c3.7,3.3,36.4,6.1,75.5,7.5c38.2,1.4,84.4,4.7,102.1,7c18.2,2.3,40.1,4.2,48.9,3.7c8.9,0,29.8,4.2,46.6,9.8
		c28.4,9.8,57.3,15.4,76,15.4c4.2-0.5,7.9,1.4,7.9,3.3c0,1.9,8.4,6.1,18.6,9.3c10.3,2.8,24.2,10.7,31.2,17.7
		c7.5,6.5,17.7,14.9,23.8,18.6c5.6,4.2,10.3,10.3,10.3,14c0,4.2,4.2,14.5,9.8,22.8c12.6,20.5,17.2,77.8,8.9,105.8
		c-9.3,32.6-13.1,39.6-33.6,67.6c-25.6,33.6-33.1,40.6-62.5,54.5c-13.1,6.1-26.1,14.5-29.4,18.2c-3.3,3.7-12.1,8.4-20,9.8
		c-7.9,1.9-14.9,7-16.3,11.2c-2.3,9.3-45.7,30.3-55,26.6c-3.7-1.4-7.9-0.5-9.3,1.9c-1.9,2.8-16.3,4.7-32.6,4.7s-31.2,2.3-32.6,4.7
		c-1.4,2.8-7.5,3.7-13.1,2.3c-6.1-1.9-20.5,1.9-33.6,7.5c-13.1,6.1-35.9,12.1-51.3,14.5c-15.4,1.9-37.3,5.6-48.9,8.9
		c-11.7,2.8-26.6,5.1-33.6,5.1c-7.5,0.5-13.1,2.3-13.1,4.2c0,6.1-34.5,5.1-41-1.4c-4.2-4.2-7.9-4.2-15.8,0
		c-6.1,2.8-31.7,6.1-57.3,7.5c-25.6,1.4-55,2.8-65.3,3.7c-14.9,0.5-19.6-1.4-23.8-8.9c-4.2-9.3-5.1-9.3-9.8-2.3
		c-5.1,7.5-5.6,7.5-5.6-0.5c-0.5-4.7-2.8-7-5.1-5.6c-2.8,1.4-6.5-1.9-8.9-7.9c-4.7-11.7-7.9-7-10.7,14.9
		c-1.4,10.7-2.8,11.7-22.4,10.3c-12.6-0.9-23.3-4.7-27-9.3c-5.1-7-7-6.5-16.3,4.2C6567.3,15267.8,6551.5,15275.7,6551.5,15268.2z
		 M6550.5,15230.5c-0.9-2.8-3.7-4.7-6.1-4.7c-2.3,0-5.1,1.9-6.1,4.7c-0.9,2.8,1.9,5.1,6.1,5.1S6551.5,15233.3,6550.5,15230.5z
		 M6577.1,15226.3c1.9-2.8-2.3-4.7-8.9-4.7s-12.1,2.3-12.1,4.7c0,2.8,4.2,4.7,8.9,4.7C6570.1,15230.9,6575.7,15229.1,6577.1,15226.3
		z M6451.3,15217.9c-1.4-1.4-5.1,0-8.4,3.3c-4.2,4.7-3.7,5.1,2.8,2.3C6450.3,15222.1,6452.7,15219.3,6451.3,15217.9z
		 M6353.4,15212.3c0-3.7-4.7-7.5-10.3-8.4c-6.1-0.9-10.7,0.5-10.7,3.3s-7.5,0.5-16.3-4.7c-13.1-7.9-17.7-8.9-23.3-4.2
		c-10.3,8.4-3.7,17.2,11.7,14.9c8.9-1.4,14,0,14,3.3c0,3.7,6.5,5.1,17.7,4.2C6347.8,15219.7,6353.4,15217,6353.4,15212.3z
		 M6425.6,15217c-9.3-6.1-18.6-6.1-18.6,0c0,2.8,5.6,4.7,13.1,4.7C6429.8,15221.6,6431.2,15220.7,6425.6,15217z M6695,15208.6
		c0.9-3.3-2.8-5.6-7.9-5.6c-9.8,0-12.6,5.1-6.5,11.2C6684.8,15218.3,6692.7,15215.1,6695,15208.6z M6178.6,15203
		c3.7,0,1.4-2.8-5.1-6.5c-17.2-8.9-48.5-8.9-55.9,0.5c-5.1,6.1-3.7,6.5,10.7,5.6c9.8-0.9,18.6,0,21,1.9c1.9,2.3,7.9,2.8,13.1,1.4
		S6174.8,15203,6178.6,15203z M6092.8,15196c1.9-3.7,5.6-7,9.3-7c3.7,0,6.5-1.9,6.5-4.2c0-2.8-12.6-4.7-28-4.7s-28,1.9-28,3.3
		c0,4.2,23.8,18.6,31.7,19.1C6087.7,15203,6091.4,15199.7,6092.8,15196z M5996.8,15188.1c0-4.7-4.2-4.2-16.3,0.9
		c-7.9,3.7-7.5,3.7,3.7,3.3C5991.2,15191.8,5996.8,15189.9,5996.8,15188.1z M6482.5,15188.5c1.4-3.7,6.5-3.7,17.7-0.9
		c24.2,6.5,239.1,4.2,241.5-2.3c0.9-3.7,15.4-5.6,39.6-5.6c21,0,58.3-2.3,82.5-5.1c24.2-2.8,52.2-5.6,62-7
		c9.8-0.9,20.5-3.3,23.3-5.1c2.8-1.4,20-5.6,37.8-8.9c18.2-3.3,44.7-9.3,58.7-13.1c14-4.2,28.4-6.5,31.7-5.1c2.8,0.9,5.6,0,5.6-2.3
		c0-2.8,6.1-4.7,13.5-4.7c7.5,0,15.8-3.3,19.1-7c3.3-3.7,8.4-7,11.2-7c5.1,0,26.6-10.7,74.1-37.3c24.7-13.5,57.3-41.5,72.7-61.5
		c3.3-4.2,8.4-20.5,11.7-36.4c5.6-25.6,5.1-29.8-3.7-46.6c-5.1-10.3-11.2-18.6-13.1-18.6c-2.3,0-8.4-4.2-14-9.3
		c-11.2-10.3-16.3-11.2-58.3-9.3c-22.8,0.5-29.8-0.5-32.2-6.1c-1.4-4.2-8.4-8.9-15.8-10.3c-7.5-1.4-14.5-6.1-15.8-9.8
		c-1.9-5.6-7.9-6.5-22.4-5.1c-11.2,1.4-21.9,2.8-24.7,3.7c-2.3,0.5-14-1.4-25.2-4.7c-16.3-4.7-21-4.7-24.2,0
		c-2.3,4.2-6.5,4.7-16.8,0.9c-24.2-8.9-69.5-9.8-77.4-1.9c-9.3,9.3-48.5,6.1-58.3-4.2c-4.7-5.1-15.4-11.7-23.8-14
		c-12.1-3.3-16.8-2.3-24.2,5.1c-9.8,9.8-18.6,11.2-26.1,3.7c-3.7-3.7-7.9-3.7-14.5,0c-5.6,2.8-33.6,5.1-63.4,5.1
		c-44.7,0-54.1-1.4-54.1-7c0-4.2-4.2-7-9.8-7c-7,0-8.9,2.3-7,7c3.7,10.7-9.8,8.4-21.4-3.3c-9.3-9.3-10.7-9.8-12.1-2.3
		c-0.9,4.2-3.7,7.9-6.5,7.9c-2.3,0-3.7-2.8-2.3-5.6c2.3-7-18.6-22.4-30.3-22.4c-5.1,0-8.4,4.7-9.3,13.1
		c-1.4,12.6-1.9,12.6-36.4,13.5c-19.1,0-31.2-0.5-26.6-1.9c9.3-2.3,10.7-13.5,1.9-18.6c-3.7-1.9-7.5-7.5-9.3-11.7
		c-1.4-4.7-6.5-8.4-11.2-8.4c-6.1,0-6.5,1.4-2.3,5.6c3.3,3.3,5.6,8.4,5.6,11.2c0,7.5-23.3,10.3-34,4.2c-6.5-3.7-9.3-2.8-13.1,3.7
		c-2.8,4.2-6.5,7-8.9,5.6c-4.2-2.8-51.7-7.9-67.6-7.9c-24.2,0.5-55.5,5.6-57.8,9.3c-1.4,2.3-15.4,5.6-30.8,7.5
		c-18.2,1.9-25.6,1.4-21-1.4c5.1-3.7,4.2-5.6-6.1-9.3c-17.2-6.5-21.9-6.5-24.7,1.4c-1.4,3.7-14.9,8.9-33.1,12.1
		c-28.4,4.7-31.2,4.7-40.6-4.2c-12.6-11.7-21.4-12.6-21.4-2.3c0,6.5-3.3,7.5-18.6,5.1c-9.8-1.4-18.6-0.5-19.6,1.4
		c-0.9,2.3-15.8,4.2-34,4.7c-49.4,1.4-53.6,0.9-50.8-7c2.8-7-5.1-10.3-8.4-3.3c-2.8,7-53.1,17.7-78.3,16.8c-14-0.5-29.8-1.4-35-1.4
		c-27-0.9-63.9,4.7-73.2,10.7c-5.6,4.2-14,7.5-18.6,7.5c-4.7,0-19.1,5.1-32.6,11.7c-29.8,14.5-33.1,14.5-46.6,0.5
		c-11.2-11.2-24.7-15.8-57.3-20c-21.9-2.3-27-5.1-22.8-11.7c2.3-3.3,0.9-3.7-2.3-1.9c-3.3,2.3-7.5,8.9-9.8,14.9
		c-6.1,15.8-15.8,14.5-12.1-1.4c1.4-7.5,1.4-10.3,0-7.5c-1.4,3.3-10.7,7.9-20.5,10.7c-10.3,2.8-21.4,7.9-25.2,11.7
		c-8.4,8.4-49.4,9.8-49.4,1.4c0-2.8-2.8-1.9-6.1,2.8c-7.9,10.7-95.6,20-122.1,12.6c-12.1-3.3-20.5-3.3-26.6,0
		c-4.7,2.8-26.1,5.6-46.6,7c-21,0.9-39.2,2.8-40.1,4.2c-3.7,3.7,3.7,25.6,8.9,25.6c2.8,0,23.8,9.3,46.1,20.5
		c22.8,11.2,48,21.9,55.9,23.8c7.5,1.9,14,4.7,14,7c0,1.9,6.5,4.7,14,6.5c7.9,1.4,20,7,27.5,12.6s16.8,8.9,20.5,7.5
		c3.7-1.4,11.7,0.9,17.7,5.1c6.1,4.2,18.6,10.3,27.5,12.6c8.9,2.8,18.6,9.8,21.4,15.8c3.7,7,6.5,8.9,8.9,5.1
		c3.7-6.1,38.7-1.9,46.1,5.1c2.8,2.3,10.3,4.2,17.2,4.2s15.8,3.3,20,7c3.7,3.7,9.8,6.1,13.1,4.7c3.7-1.4,13.1,0.5,20.5,4.7
		c7.5,3.7,19.1,7,26.6,7c12.6,0,92.3,16.3,105.8,21.4c3.7,1.9,13.5,3.7,21,4.2c7.9,0.9,24.7,3.7,37.3,6.1
		c13.1,2.8,42.4,7.5,65.3,10.7c23.3,2.8,49.4,7,58.3,9.3c8.9,2.3,25.2,4.2,35.9,4.2c10.7,0,25.2,2.3,32.2,4.7c7,2.8,27.5,6.1,45.7,7
		c51.7,3.3,83,7,103,12.6c10.3,2.8,25.6,4.7,34,4.7c7.9-0.5,14.9,0.9,14.9,2.8s20.5,3.3,45.2,3.7c123.5,0.5,167.3,2.3,173.9,6.5
		C6472.2,15195,6480.2,15195,6482.5,15188.5z M5936.2,15182c0-4.2,3.3-8.4,7-9.8c3.7-1.9,7-7,7-11.7c0-6.5-3.3-8.9-13.1-8.9
		c-17.2,0-18.2,1.4-15.8,21C5923.1,15188.5,5936.2,15196.9,5936.2,15182z M6033.1,15176.4c0.9-4.2-4.2-6.1-17.2-6.1
		c-10.7,0-19.1,1.9-19.1,4.2C5996.8,15183.9,6029.9,15185.3,6033.1,15176.4z M5881.2,15155.4c-4.2-4.2-7-4.2-11.2,0
		s-3.3,5.6,5.6,5.6C5884.4,15161,5885.4,15159.6,5881.2,15155.4z M5822.4,15146.6c1.4-2.8,0.5-7.5-2.3-10.3
		c-4.2-4.2-6.5-3.7-10.3,1.4c-3.7,6.1-5.1,6.1-10.7-1.4c-5.6-7.5-9.8-7.9-35.9-4.2c-25.2,3.7-27,4.7-11.2,5.1
		c10.3,0.5,23.8,3.7,30.3,7.5C5796.3,15152.6,5817.8,15153.6,5822.4,15146.6z M5724.1,15123.7c7.9-1.9,10.3-3.7,5.6-4.2
		c-4.7,0-9.3-3.3-10.7-6.5c-0.9-3.3-7-6.5-13.5-7c-8.4-0.5-10.7,0.9-8.9,6.1c2.3,5.6-1.4,7-14.9,7.5l-18.2,0.9l16.3,3.3
		C5700.8,15127.9,5706.8,15127.9,5724.1,15123.7z M5661.2,15102.7c-3.3-3.7-7.9-5.6-10.3-4.2s-9.3-1.9-15.8-7.9l-11.2-10.3v12.1
		c0,11.7,13.5,21,22.4,15.4c1.9-0.9,6.5-0.5,10.3,1.9C5665.8,15115.3,5668.6,15111.6,5661.2,15102.7z M5576.3,15087.4
		c0.9-3.3-1.4-5.6-5.6-5.6s-7.5,3.3-7.5,7.5C5563.3,15097.2,5573.5,15095.8,5576.3,15087.4z M5607.5,15090.6c4.7-7-0.5-10.7-9.3-7
		c-4.2,1.4-6.1,4.7-4.7,7.5C5597.3,15097.2,5603.8,15097.2,5607.5,15090.6z M5474.7,15086.4c0-2.3-3.3-4.7-7-4.7c-3.7,0-7,2.3-7,4.7
		c0,2.8,3.3,4.7,7,4.7C5471.4,15091.1,5474.7,15089.2,5474.7,15086.4z M5254.7,14989c4.7-2.8,4.2-4.7-3.3-6.5
		c-6.5-1.4-9.8,0-9.8,4.2C5241.6,14994.1,5245.8,14995.1,5254.7,14989z M5297.6,14901.8c0-0.9-3.3-1.9-7-1.9s-7,1.9-7,4.7
		c0,2.3,3.3,3.3,7,1.9C5294.3,14904.6,5297.6,14902.8,5297.6,14901.8z M6819.5,14848.7c1.4-2.3,0.5-4.7-1.9-4.7
		c-2.8,0-5.1,2.3-5.1,4.7c0,2.8,0.9,4.7,1.9,4.7C6815.8,14853.4,6818.1,14851.5,6819.5,14848.7z M5842.9,14836.6
		c0-3.7-2.3-5.6-4.7-4.2c-2.8,1.9-3.7,5.1-2.3,7.5C5840.1,14846.4,5842.9,14845,5842.9,14836.6z M5341.8,14829.6
		c33.1-4.7,59.2-7.9,186.5-20.5c76-7.9,112.8-13.5,117-17.7c4.2-4.2-21.9-41-50.3-70.4c-14.9-14.9-27-29.4-27-31.7
		c0-6.1-12.1-17.7-18.2-17.7c-2.8,0-5.1-3.7-5.1-7.9c0-4.7-10.3-19.1-22.8-32.2c-12.6-13.5-26.6-29.8-31.2-36.8
		c-7.5-11.2-10.3-12.1-24.7-9.3c-9.3,1.9-23.3,2.8-31.7,2.8c-9.3-0.5-18.2,2.8-23.8,8.9c-5.1,5.6-19.1,11.2-34,14
		c-36.4,6.1-69,16.8-95.6,31.2c-12.6,6.5-32.6,17.2-44.7,23.8c-12.6,6.1-22.4,13.5-22.4,15.8c0,2.8-8.4,13.1-19.1,22.8
		c-16.3,15.4-19.6,21.9-26.1,51.7c-5.6,27.5-6.1,36.8-1.4,50.3c11.7,33.6,13.5,34,81.6,30.8
		C5282.2,14835.7,5324.1,14831.9,5341.8,14829.6z M7208.7,14837.5c0-5.1-8.9-7-11.7-2.8c-1.4,2.3,0.5,4.7,4.2,4.7
		C7205.5,14839.4,7208.7,14838.4,7208.7,14837.5z M6225.2,14822.6c0-3.7-1.9-6.5-4.7-6.5c-2.3,0-4.7,4.2-4.7,9.8
		c0,5.1,2.3,7.9,4.7,6.5C6223.3,14831,6225.2,14826.3,6225.2,14822.6z M6035.9,14823.1c1.4-3.7,0.5-7-1.9-7c-2.8,0-4.7,3.3-4.7,7
		c0,3.7,0.9,7,1.9,7C6032.2,14830.1,6034.1,14826.8,6035.9,14823.1z M6090,14820.3c0-2.3-3.3-4.2-7-4.2c-7,0-9.3,5.6-4.2,10.7
		C6082.5,14830.5,6090,14826.3,6090,14820.3z M5812.6,14820.7c1.4-2.3,0.5-4.7-1.9-4.7c-2.8,0-5.1,2.3-5.1,4.7
		c0,2.8,0.9,4.7,1.9,4.7C5808.9,14825.4,5811.2,14823.5,5812.6,14820.7z M6178.6,14812.8c0-12.1,0-12.1-9.3-3.7
		c-7.5,6.5-7.9,9.3-3.7,12.6C6175.8,14827.7,6178.6,14825.9,6178.6,14812.8z M6548.7,14813.3c3.7-10.3,3.7-11.2-3.7-11.2
		c-8.4,0-13.5,7.5-9.8,14C6539.4,14823.1,6545.4,14821.7,6548.7,14813.3z M6201.9,14807.2c0-2.8-1.9-6.1-4.7-7.5
		c-2.3-1.4-4.7,0.5-4.7,4.2c0,4.2,2.3,7.5,4.7,7.5C6200,14811.4,6201.9,14809.5,6201.9,14807.2z M5239.8,14575.1
		c-4.7-4.7-8.9,2.3-4.7,8.4c2.8,5.1,3.7,5.1,5.6,0C5241.6,14580.2,5241.2,14576.5,5239.8,14575.1z M5566.1,14452
		c7.5-6.1,98.4-36.8,110.5-37.3c9.8,0,9.8-0.5,0.9-4.2c-8.4-3.7-8.9-4.2-0.5-4.2c4.7-0.5,14.5-5.6,22.4-12.1
		c7.5-6.5,16.8-11.7,20-11.7c3.3,0,7-1.4,7.9-3.3c0.9-2.3,9.8-7.9,20-13.1c19.6-9.8,37.8-25.6,62.5-54.5
		c18.6-21.4,23.8-58.3,12.1-86.2c-9.3-22.4-63.9-103.9-84.4-126.3c-8.9-9.8-15.8-18.6-15.8-20.5c0-2.3-3.3-3.7-7-3.7s-7-2.8-7-5.6
		c0-6.5-29.4-31.7-36.8-31.7c-2.8,0-5.1-2.8-5.1-6.5c0-3.7-3.3-7.5-7-9.3c-3.7-1.4-7-6.5-7-11.7c0-6.1-2.3-8.4-6.1-7
		c-3.3,0.9-12.1-3.3-19.1-9.8c-7-6.5-14.5-11.7-17.2-11.7c-2.3,0-12.6-8.4-22.8-18.6s-22.4-18.6-28-18.6c-5.1,0-9.3-1.9-9.3-4.7
		c0-2.3-2.8-4.7-6.5-4.7c-3.7,0-12.6-4.7-20-10.7c-7-6.1-28.9-18.6-48-28.4c-19.1-9.8-37.3-21-40.6-24.7c-2.8-3.7-7.9-6.1-11.7-5.6
		c-3.3,0.5-18.2-4.2-32.6-11.2c-14.5-7-39.2-15.4-55.5-19.1c-15.8-3.7-31.2-9.3-33.6-11.7c-2.8-2.8-8.9-5.1-13.5-5.1
		c-4.7,0-8.4-2.8-8.4-6.5c0-4.2-7-7.5-19.6-8.9c-32.2-3.7-105.3-21-119.3-28c-7-3.7-26.6-7.9-43.8-8.9c-41.5-3.3-46.6,1.9-31.2,31.2
		c6.1,11.7,12.6,21,14.5,21c1.9,0,8.9,9.8,15.8,22.4c7,12.1,16.8,26.6,21.9,32.2c4.7,5.6,7.9,11.7,6.5,14s4.7,13.5,13.5,24.2
		c8.9,11.2,15.8,23.3,15.8,26.6c0,3.3,4.7,11.7,10.7,19.1c6.1,7,12.6,16.3,14,20c3.7,7.9,14,24.7,17.2,28c1.4,1.4,7,11.7,13.1,23.3
		c13.5,27,25.6,48.5,29.4,51.3c1.4,1.4,8.9,13.1,15.8,25.6c7.5,13.1,14.9,24.2,16.8,25.6c1.4,1.4,8.9,11.7,15.8,23.3
		c7,11.7,20.5,30.3,29.8,42c18.6,22.8,30.3,39.2,45.2,63.9c5.6,8.9,14.5,19.1,20,22.8c5.1,3.7,9.8,10.3,9.8,14
		c0,7.5,3.7,12.1,23.8,33.6c7,7,15.4,19.1,19.6,26.6c3.7,7.9,15.8,23.3,26.1,35s19.1,23.8,19.1,26.6c0,3.3,8.4,14.5,18.6,25.2
		c18.2,18.6,19.1,19.1,40.6,15.8C5551.1,14457.6,5563.3,14454.4,5566.1,14452z M5884.9,14368.6c0-2.3-0.9-4.7-1.9-4.7
		c-1.4,0-3.7,2.3-5.1,4.7c-1.4,2.8-0.5,4.7,1.9,4.7C5882.6,14373.2,5884.9,14371.4,5884.9,14368.6z M4672,14316.4
		c-1.4-3.3-5.1-6.1-8.4-6.1c-3.3,0-7,2.8-7.9,6.1c-1.4,3.3,1.9,5.6,7.9,5.6S4672.9,14319.6,4672,14316.4z M4744.3,14309.4
		c-3.3-0.9-8.9-0.9-11.7,0c-3.3,1.4-0.9,2.3,5.6,2.3S4747.1,14310.8,4744.3,14309.4z M5304.6,14308c1.4-2.3-0.5-4.7-4.7-4.7
		s-6.1,2.3-4.7,4.7c1.4,2.8,3.7,4.7,4.7,4.7C5300.8,14312.6,5303.2,14310.8,5304.6,14308z M10481,14216.6c0-5.1-2.3-4.7-8.4,1.9
		c-5.1,4.2-7.9,9.8-7,11.7C10468.9,14235.3,10481,14224.1,10481,14216.6z M10518.3,14213.8c0-7.5-1.4-8.9-5.1-5.1
		c-2.8,2.8-3.7,7.5-2.3,10.3C10516,14226.9,10518.3,14225,10518.3,14213.8z M7110.8,14212.4c0-9.8-16.8-25.6-27-25.6
		c-13.1,0-65.7-27-89-45.7c-25.2-20.5-46.6-31.7-68.1-35.4c-8.9-1.9-16.3-4.7-16.3-6.5s-12.1-9.3-26.6-15.8
		c-14.9-7-31.7-16.8-37.3-21.9c-5.6-5.6-16.3-9.8-23.8-9.8c-7,0-15.4-2.3-18.6-5.6c-7-7-16.3,17.2-12.6,33.6
		c7,30.3,13.1,38.2,41,51.7c15.4,7.5,31.7,13.5,36.4,13.5c4.2,0,10.3,2.8,13.1,6.5c2.8,3.3,18.6,9.8,35.4,14.5
		c16.8,4.2,30.3,9.8,30.3,12.1c0,2.3,6.1,4.2,13.1,4.2c7.5,0,14.9,1.4,16.8,3.7c1.9,1.9,7.9,3.7,13.5,4.2
		c15.4,0.9,72.3,14.9,93.7,22.4C7109,14220.8,7110.8,14220.8,7110.8,14212.4z M10541.6,14214.8c0-2.3-1.9-4.7-4.7-4.7
		c-2.3,0-4.7,2.3-4.7,4.7c0,2.8,2.3,4.7,4.7,4.7C10539.7,14219.4,10541.6,14217.6,10541.6,14214.8z M11679,14207.3
		c0-3.7-1.9-5.6-4.7-4.2c-2.3,1.4-4.7,4.7-4.7,7.5c0,2.3,2.3,4.2,4.7,4.2C11677.1,14214.8,11679,14211.5,11679,14207.3z
		 M4435.2,14205.9c0-2.3-3.3-5.1-6.5-6.5c-4.7-1.9-6.1-0.5-4.2,4.2C4427.3,14210.6,4435.2,14212.4,4435.2,14205.9z M10468.9,14203.1
		c-2.8-7.5-11.2-9.8-11.2-3.3c0,5.1,5.1,10.3,9.8,10.3C10469.8,14210.1,10470.3,14206.8,10468.9,14203.1z M10574.2,14203.6
		c0-1.4-1.9-3.7-4.7-5.1c-2.3-1.4-4.7-0.5-4.7,1.9c0,2.8,2.3,5.1,4.7,5.1C10572.4,14205.4,10574.2,14204.5,10574.2,14203.6z
		 M10536.9,14196.1c0-2.3-1.9-4.7-4.7-4.7c-2.3,0-4.7,2.3-4.7,4.7c0,2.8,2.3,4.7,4.7,4.7
		C10535.1,14200.8,10536.9,14198.9,10536.9,14196.1z M10603.6,14181.7c1.4-6.1,0.5-8.9-2.8-7.5c-7,2.3-10.3,17.2-4.2,17.2
		C10598.9,14191.5,10602.2,14187.3,10603.6,14181.7z M11652.4,14150c-1.4-6.5-4.7-17.2-7.5-23.8c-7-17.7-8.9-24.7-8.4-38.2
		c0.5-10.7-1.4-13.1-11.2-13.1c-9.8,0-12.1-3.3-16.8-21.4c-3.7-14.9-7-19.6-10.3-16.3c-7.5,7.5-21.9,6.1-24.7-1.9
		c-1.9-3.7-5.6-7-9.3-7s-6.5-3.3-6.5-7.5c0-7.9-19.1-7.5-19.1,0.5c0,2.8-4.2,6.1-9.3,7.9c-19.6,7.5-3.3,50.3,32.6,84.8
		c7.5,7,12.6,16.3,11.2,19.6c-1.4,3.7,0.5,6.5,4.7,6.5c3.7,0,7.9,3.3,9.8,7c1.4,3.7,6.5,7,12.1,7c5.1,0,15.8,6.1,24.2,14l15.4,13.5
		l7.9-9.3C11652.9,14165.8,11654.7,14158.4,11652.4,14150z M11541,14141.6c2.8-8.9,0.9-11.2-9.3-13.5c-14.9-3.7-26.6,2.3-29.4,14.9
		c-1.4,8.4-1.4,8.4,7.9,0.5c9.3-8.4,9.3-8.4,7,10.7l-2.8,19.6l11.7-11.2C11532.6,14157,11539.1,14147.2,11541,14141.6z
		 M12131.1,14157.9c0-2.8-3.3-2.3-7,0.9c-3.7,3.3-7,7.9-7,10.3c0,2.8,3.3,2.3,7-0.9S12131.1,14160.2,12131.1,14157.9z
		 M10453,14163.5c0-2.3-0.9-4.7-1.9-4.7c-1.4,0-3.7,2.3-5.1,4.7c-1.4,2.8-0.5,4.7,1.9,4.7
		C10450.7,14168.1,10453,14166.3,10453,14163.5z M12372.1,14146.7c-1.4-1.4-5.6-1.9-8.9-0.5c-3.7,1.4-2.3,2.8,2.8,2.8
		C12371.2,14149.5,12374,14148.1,12372.1,14146.7z M6616.7,14135.5c0-7-24.2-29.4-39.6-37.3c-7.9-3.7-21.4-12.6-30.8-19.6
		s-18.2-13.1-19.6-13.1c-1.9,0-13.5-6.1-26.6-14c-13.1-7.5-25.6-14-28-14c-10.3,0-3.7,13.5,10.7,22.8c34.5,22.8,44.7,31.2,45.2,36.8
		c0,2.8,4.2,5.6,8.9,5.6c5.1,0,9.8,1.4,10.7,3.7c1.9,4.7,55.9,33.1,63.4,33.6C6613.9,14140.2,6616.7,14138.3,6616.7,14135.5z
		 M4228.7,14106.6c-1.4-3.7-2.8-2.3-2.8,2.8c-0.5,5.1,0.9,7.9,2.3,6.1C4229.6,14114.1,4230.1,14109.9,4228.7,14106.6z
		 M11686,14107.5c-1.4-2.3-4.7-4.7-7.5-4.7c-2.3,0-4.2,2.3-4.2,4.7c0,2.8,3.3,4.7,7.5,4.7
		C11685.5,14112.2,11687.4,14110.3,11686,14107.5z M12336.2,14107.5c0-2.3-0.9-4.7-1.9-4.7c-1.4,0-3.7,2.3-5.1,4.7
		c-1.4,2.8-0.5,4.7,1.9,4.7C12333.9,14112.2,12336.2,14110.3,12336.2,14107.5z M4300.5,14092.2c-6.1-6.1-12.1-1.4-7.5,5.6
		c1.4,2.8,5.1,3.7,7.9,2.3C4303.8,14098.2,4303.8,14095.4,4300.5,14092.2z M12312.9,14078.6c0-4.7-3.3-8.4-7-8.4
		c-7,0-9.8,18.6-3.7,24.7C12306.4,14099.2,12312.9,14088.9,12312.9,14078.6z M12124.1,14088.9c1.4-2.3-0.5-4.7-4.7-4.7
		s-6.1,2.3-4.7,4.7c1.4,2.8,3.7,4.7,4.7,4.7C12120.4,14093.6,12122.7,14091.7,12124.1,14088.9z M6697.8,14046.5
		c1.4-7.9,2.8-22.4,2.8-31.7c0-13.5-2.3-17.7-12.6-22.4c-7-3.3-16.3-6.1-21-6.1c-4.7,0-8.4-1.9-8.4-4.7c0-2.3-4.2-4.7-9.3-4.7
		s-9.3-1.9-9.3-4.7c0-2.3-3.7-4.7-8.9-4.7c-7.5,0-37.3-12.1-56.4-22.8c-3.7-2.3-13.1-6.5-21-9.8c-7.5-3.3-19.6-8.9-26.6-12.1
		c-17.7-9.3-23.8-8.4-16.8,2.8c3.3,5.1,8.4,9.3,11.2,9.3s8.9,4.2,13.5,9.3c4.7,5.1,10.3,9.3,12.1,9.3c13.1,0,102.1,76.4,102.1,87.2
		c0,3.7,2.3,5.1,5.1,3.7c2.8-1.9,7.9,0.9,11.7,6.5c3.7,5.6,12.1,9.8,17.7,9.8C6692.2,14060.9,6695.5,14057.7,6697.8,14046.5z
		 M11641.7,14044.6c0-3.7-3.3-7-7-7c-3.7,0-7,3.3-7,7c0,3.7,3.3,7,7,7C11638.4,14051.6,11641.7,14048.3,11641.7,14044.6z
		 M6464.8,14035.3c1.4-4.2,0-7-4.2-7c-3.7,0-7,3.3-7,7c0,3.7,1.9,7,4.2,7C6460.1,14042.3,6462.9,14039,6464.8,14035.3z
		 M10688.4,14023.6c1.4-2.3-0.5-4.7-4.7-4.7s-6.1,2.3-4.7,4.7c1.4,2.8,3.7,4.7,4.7,4.7
		C10684.7,14028.3,10687,14026.4,10688.4,14023.6z M11517.2,14020.4c7-26.1,7.9-34.5,3.3-31.7c-2.8,1.9-8.4,0.5-12.1-2.8
		c-7.9-6.5-8.9-5.6-13.1,11.2c-2.3,9.3-0.9,13.5,4.2,15.4c3.7,1.9,7,5.6,7,9.3C11506.5,14031.1,11514.9,14029.7,11517.2,14020.4z
		 M6961.7,13993.3c0-8.9-89-84.8-103.9-88.6c-13.5-3.7-23.3,3.3-28.4,19.6c-2.3,7.9-0.5,11.7,9.8,17.2c28,14.9,63.4,30.8,69.9,30.8
		c4.2,0,6.1,2.8,4.7,6.5c-1.9,4.7-0.5,6.1,3.7,4.7c3.3-1.4,12.1,0.5,19.6,4.7C6950,13995.2,6961.7,13997.5,6961.7,13993.3z
		 M11478.5,13913.6c0-3.7-1.9-5.6-4.7-4.2c-2.3,1.4-4.7,4.7-4.7,7.5c0,2.3,2.3,4.2,4.7,4.2
		C11476.7,13921.1,11478.5,13917.8,11478.5,13913.6z M11483.2,13895.9c0-1.4-1.9-3.7-4.7-5.1c-2.3-1.4-4.7-0.5-4.7,1.9
		c0,2.8,2.3,5.1,4.7,5.1C11481.3,13897.8,11483.2,13896.9,11483.2,13895.9z M11492.5,13874c0-5.1-1.9-7.9-4.7-6.5
		c-2.3,1.4-4.7,6.1-4.7,9.8c0,3.7,2.3,6.5,4.7,6.5C11490.6,13883.8,11492.5,13879.6,11492.5,13874z M10634.8,13869.8
		c0-2.3-2.3-4.7-5.1-4.7c-2.3,0-3.3,2.3-1.9,4.7c1.4,2.8,3.7,4.7,5.1,4.7C10633.9,13874.5,10634.8,13872.6,10634.8,13869.8z
		 M9861,13832.1c0-16.3-7-14.5-10.3,2.8c-1.9,7.9-0.5,11.7,3.7,11.7S9861,13841.4,9861,13832.1z M9614,13836.7c0-2.8-3.3-4.2-7-2.3
		c-4.2,1.4-7,0-7-4.2c0-4.7-4.7-7-12.6-7l-13.1,0.5l11.2,8.9C9597.2,13842.8,9614,13845.1,9614,13836.7z M9949.6,13832.5
		c0-2.3-1.9-4.7-4.2-4.7c-2.8,0-6.1,2.3-7.5,4.7c-1.4,2.8,0.5,4.7,4.2,4.7C9946.3,13837.2,9949.6,13835.3,9949.6,13832.5z
		 M10434.4,13832.5c0-2.3-0.9-4.7-1.9-4.7c-1.4,0-3.7,2.3-5.1,4.7c-1.4,2.8-0.5,4.7,1.9,4.7
		C10432.1,13837.2,10434.4,13835.3,10434.4,13832.5z M10084.8,13806.9c-3.3-3.7-7.9-5.6-10.3-4.2c-2.8,1.9-2.3,4.7,1.4,7
		C10086.2,13816.2,10091.3,13814.3,10084.8,13806.9z M10196.7,13806.9c0-3.7-1.9-7-4.7-7c-2.3,0-4.7,3.3-4.7,7c0,3.7,2.3,7,4.7,7
		C10194.8,13813.9,10196.7,13810.6,10196.7,13806.9z M9912.3,13804.6c0-2.3-0.9-4.7-1.9-4.7c-1.4,0-3.7,2.3-5.1,4.7
		c-1.4,2.8-0.5,4.7,1.9,4.7C9910,13809.2,9912.3,13807.4,9912.3,13804.6z M11511.2,13790.6c3.7-2.3,5.1-5.6,3.7-7.5
		c-4.7-4.2-17.7,1.4-17.7,7.5C11497.2,13796.2,11501.8,13796.6,11511.2,13790.6z M10136.1,13776.6c0-9.3-2.3-14-7-14
		c-8.4,0-8.4,0.5-2.3,15.8C10132.8,13794.3,10136.1,13793.8,10136.1,13776.6z M5230.9,13783.1c-1.4-1.4-5.6-1.9-8.9-0.5
		c-3.7,1.4-2.3,2.8,2.8,2.8C5230,13785.9,5232.8,13784.5,5230.9,13783.1z M10376.6,13759.3c-0.9-1.4-4.2-0.9-7,0.9
		c-3.7,1.9-3.3,6.1,0.5,13.1l6.1,10.3l1.4-10.7C10378.4,13766.8,10378,13760.7,10376.6,13759.3z M9994.3,13764
		c-4.7-4.7-8.9,2.3-4.7,8.4c2.8,5.1,3.7,5.1,5.6,0C9996.2,13769.1,9995.7,13765.4,9994.3,13764z M10192.9,13771
		c3.3-8.4-0.9-18.2-6.1-14.9c-5.6,3.3-5.6,20.5,0,20.5C10189.2,13776.6,10192,13773.8,10192.9,13771z M10667.5,13769.1
		c0-4.2,3.7-10.7,8.4-14c7-5.6,6.5-6.1-7-6.5c-14,0-15.4,1.4-15.4,14c0,9.3,2.3,14,7,14
		C10664.2,13776.6,10667.5,13773.3,10667.5,13769.1z M12252.3,13769.1c0-0.9-3.3-1.9-7-1.9s-7,1.9-7,4.7c0,2.3,3.3,3.3,7,1.9
		C12249,13771.9,12252.3,13770.1,12252.3,13769.1z M10510.8,13764.9c1.4-4.2,0-7-4.2-7c-3.7,0-7,3.3-7,7c0,3.7,1.9,7,4.2,7
		C10506.2,13771.9,10509,13768.7,10510.8,13764.9z M10753.7,13767.3c1.4-2.8-1.9-4.7-7.9-4.7c-8.4,0-9.3,0.9-3.7,4.7
		C10750.9,13772.9,10750.4,13772.9,10753.7,13767.3z M10821.3,13765.4c0-1.4,0-4.7,0-7.5c0-2.3-3.3-4.7-7-4.7c-4.7,0-7-4.7-7.5-12.6
		l-0.5-13.1l-5.1,12.1l-5.6,12.6l-11.7-15.8c-14.9-20-18.6-19.6-18.6,0.5c0,13.1,1.9,16.3,9.3,16.3c5.1,0,9.3,2.3,9.3,4.7
		c0,2.8-4.2,4.7-9.3,4.7c-5.1,0-9.3,1.9-9.3,4.2c0,2.3,12.6,3.7,28,2.8C10808.7,13769.1,10821.3,13767.3,10821.3,13765.4z
		 M10975.1,13766.3c0-2.3-14-3.7-31.2-3.7c-34.5,0-52.2-6.1-34.5-11.7s24.2-30.3,7.9-30.3c-9.8,0-26.1,16.8-26.1,27
		c0,5.6-3.7,12.1-7.9,14.9c-7,4.2-6.5,4.7,4.2,2.8c7-1.9,13.5-1.4,14.5,0.5C10905.2,13770.5,10975.1,13771,10975.1,13766.3z
		 M10623.2,13744.9c-2.3-6.1-3.7-6.5-7-1.4c-2.3,4.2-1.4,10.3,1.4,15.4c4.7,7.5,5.6,7.5,7,1.4
		C10625.5,13756.1,10625,13749.1,10623.2,13744.9z M11118.2,13764.5c-1.4-1.4-5.6-1.9-8.9-0.5c-3.7,1.4-2.3,2.8,2.8,2.8
		C11117.3,13767.3,11120.1,13765.9,11118.2,13764.5z M11145.2,13762.6c-1.4-2.3-5.6-4.7-9.3-4.7c-3.7,0-7.9,2.3-9.3,4.7
		c-1.9,2.8,2.3,4.7,9.3,4.7S11147.1,13765.4,11145.2,13762.6z M11331.7,13759.3c-1.4-4.7-4.2-14-5.6-21c-2.8-14-10.7-13.1-10.7,1.4
		c0,4.7-3.3,8.9-7,8.9c-3.7,0-7,2.3-7,4.7c0,2.8,1.9,4.7,4.2,4.7c2.8,0,6.1-1.9,7.5-4.7c5.1-8.4,10.7-5.1,8.4,4.7
		c-1.9,6.5,0,9.3,5.6,9.3C11332.6,13767.3,11334,13764.9,11331.7,13759.3z M10451.6,13759.8c-1.4-1.4-5.6-1.9-8.9-0.5
		c-3.7,1.4-2.3,2.8,2.8,2.8C10450.7,13762.6,10453.5,13761.2,10451.6,13759.8z M11573.6,13758.4c1.4-2.3-5.6-5.1-15.8-6.1
		c-21-1.9-25.6,3.7-5.6,7c7,0.9,14,2.3,15.8,2.8C11569.9,13762.1,11572.2,13760.7,11573.6,13758.4z M12224.3,13757.9
		c0-2.3-1.9-4.7-4.7-4.7c-2.3,0-4.7,2.3-4.7,4.7c0,2.8,2.3,4.7,4.7,4.7C12222.5,13762.6,12224.3,13760.7,12224.3,13757.9z
		 M10578.9,13756.1c0-1.4-1.9-3.7-4.7-5.1c-2.3-1.4-4.7-0.5-4.7,1.9c0,2.8,2.3,5.1,4.7,5.1
		C10577,13757.9,10578.9,13757,10578.9,13756.1z M11160.6,13737.4c-6.1-9.3-12.1-16.8-13.5-16.8c-2.3,0-13.5,21-13.5,25.6
		c0,1.4,7.5,2.3,16.3,2.3c9.3,0,16.3,2.3,16.3,5.6c0,2.8,1.4,4.2,2.8,2.8C11170.4,13755.1,11166.7,13746.8,11160.6,13737.4z
		 M5078,13731.8c-5.1-6.5-6.5-6.1-10.3,0.9c-3.3,6.1-2.3,9.8,4.2,14.5c7.9,5.6,8.9,5.6,10.3-0.9
		C5083.1,13742.1,5081.3,13735.6,5078,13731.8z M10130,13750.5c-1.4-1.4-5.6-1.9-8.9-0.5c-3.7,1.4-2.3,2.8,2.8,2.8
		C10129.1,13753.3,10131.9,13751.9,10130,13750.5z M10742,13751.4c0-5.1-8.9-7-11.7-2.8c-1.4,2.3,0.5,4.7,4.2,4.7
		C10738.8,13753.3,10742,13752.4,10742,13751.4z M11275.3,13749.1c3.7-5.6-1.4-19.1-7-19.1c-2.3,0-4.2,5.1-4.2,11.7
		C11264.1,13753.3,11270.6,13757.5,11275.3,13749.1z M10355.6,13737.9c-6.1-6.1-12.1-1.4-7.5,5.6c1.4,2.8,5.1,3.7,7.9,2.3
		C10358.9,13744,10358.9,13741.2,10355.6,13737.9z M10380.8,13739.3c0-10.3-13.5-8.4-15.4,1.4c-1.4,6.5,0.5,8.4,7,7
		C10377,13746.8,10380.8,13743,10380.8,13739.3z M11525.1,13738.8c0-2.8-1.9-3.3-4.7-1.9c-2.3,1.4-4.7,5.1-4.7,7.5
		c0,2.8,2.3,3.3,4.7,1.9C11523.3,13744.9,11525.1,13741.2,11525.1,13738.8z M11907.4,13745.4c0-4.7-9.3-18.6-9.3-14.5
		c0,1.4-1.4,6.1-2.8,10.3c-1.9,5.1-0.5,7.5,4.7,7.5C11904.1,13748.6,11907.4,13747.2,11907.4,13745.4z M10604.5,13730.9
		c-3.7-3.7-11.7,4.7-8.9,9.3c1.9,2.8,4.2,2.3,7-1.4C10604.5,13735.6,10605.5,13731.8,10604.5,13730.9z M11669.6,13735.1
		c0-5.1,2.3-10.7,4.7-12.1c7-4.7,5.6-16.3-2.3-16.3c-3.7,0-7,3.7-7,8.4s-3.3,13.1-7.5,18.6c-6.5,9.8-6.5,10.3,2.3,10.3
		C11666.4,13744,11669.6,13741.2,11669.6,13735.1z M11886.4,13739.8c1.4-2.3,0.5-5.6-2.3-7.5c-2.3-1.4-4.7,0.5-4.7,4.2
		C11879.4,13744.9,11882.2,13746.3,11886.4,13739.8z M10694.5,13728.6c0.9-4.7-1.4-7.9-5.6-7.9c-3.7,0-9.3-4.2-12.1-9.3
		c-6.1-11.2-14.9-7.9-10.7,3.7C10673.5,13736.5,10691.2,13744.9,10694.5,13728.6z M10829.2,13703.9c-0.9-0.9-6.5-0.5-12.6,1.9
		c-9.3,3.3-9.8,4.7-3.3,7c4.7,1.9,7.9,6.5,8.4,11.2c0,5.6,1.9,3.7,5.1-4.7C10829.2,13711.8,10830.6,13705.3,10829.2,13703.9z
		 M11433.3,13707.6c-2.3-9.3-3.3-9.8-8.4-2.8c-3.3,4.7-4.7,12.1-3.3,16.8c1.9,7.5,3.3,7.9,8.4,2.8
		C11433.8,13721.1,11435.2,13713.7,11433.3,13707.6z M10986.8,13713.7c0-4.7-2.8-9.3-5.6-10.3c-3.7-1.4-6.1,2.3-6.1,10.3
		c0,7.9,2.3,11.7,6.1,10.7C10984,13723,10986.8,13718.3,10986.8,13713.7z M11744.2,13708.5c0-3.3-4.2-6.5-9.3-7.9
		c-10.7-2.8-13.1,9.8-3.7,19.1C11737.2,13725.8,11744.2,13719.7,11744.2,13708.5z M10513.6,13713.7c0-3.7-1.9-7-4.7-7
		c-2.3,0-4.7,3.3-4.7,7s2.3,7,4.7,7C10511.8,13720.7,10513.6,13717.4,10513.6,13713.7z M12023.9,13708.5c0-3.7-4.7-6.5-11.7-6.5
		c-10.7,0-15.8,8.4-8.9,14.9C12008.1,13721.6,12023.9,13715.1,12023.9,13708.5z M10536.9,13711.3c0-2.3-0.9-4.7-1.9-4.7
		c-1.4,0-3.7,2.3-5.1,4.7c-1.4,2.8-0.5,4.7,1.9,4.7C10534.6,13716,10536.9,13714.1,10536.9,13711.3z M10966.7,13709
		c0-2.3-2.3-5.1-5.1-6.1c-2.8-0.9-5.1,1.9-5.1,6.1s2.3,7,5.1,6.1S10966.7,13711.3,10966.7,13709z M11569.4,13707.1
		c-1.4-2.8-5.1-5.1-7.9-5.1s-2.8,2.8,0.9,7C11569,13716.9,11574.5,13715.1,11569.4,13707.1z M11167.6,13708.1
		c-3.3-0.9-8.9-0.9-11.7,0c-3.3,1.4-0.9,2.3,5.6,2.3C11168.1,13710.4,11170.4,13709.5,11167.6,13708.1z M11226.8,13706.7
		c0-2.3-0.9-4.7-1.9-4.7c-1.4,0-3.7,2.3-5.1,4.7c-1.4,2.8-0.5,4.7,1.9,4.7C11224.5,13711.3,11226.8,13709.5,11226.8,13706.7z
		 M11295.8,13705.7c-2.8-8.4-13.1-9.8-13.1-1.9c0,4.2,3.3,7.5,7.5,7.5S11296.7,13709,11295.8,13705.7z M12310.6,13706.7
		c1.4-2.3,0.5-4.7-1.9-4.7c-2.8,0-5.1,2.3-5.1,4.7c0,2.8,0.9,4.7,1.9,4.7C12306.8,13711.3,12309.2,13709.5,12310.6,13706.7z
		 M4742.9,13699.2c0-0.9-3.3-1.9-7-1.9s-7,1.9-7,4.7c0,2.3,3.3,3.3,7,1.9C4739.6,13702,4742.9,13700.1,4742.9,13699.2z
		 M11697.6,13696.4c0-8.9-0.9-9.3-4.7-3.7c-6.1,8.9-6.1,14,0,14C11695.7,13706.7,11697.6,13702,11697.6,13696.4z M12078.4,13673.1
		c-0.9-6.1-1.9-1.4-1.9,10.3s0.9,16.3,1.9,10.7C12079.4,13688,12079.4,13678.7,12078.4,13673.1z M11954,13674c0-2.3-2.3-4.7-5.1-4.7
		c-2.3,0-3.3,2.3-1.9,4.7c1.4,2.8,3.7,4.7,5.1,4.7C11953.1,13678.7,11954,13676.8,11954,13674z M12135.8,13657.7
		c3.3-4.2,3.7-7,0.9-7c-2.3,0-5.6,3.3-7.5,7c-1.4,3.7-1.9,7-0.9,7S12132.5,13661.5,12135.8,13657.7z"/>
	<path d="M2582.3,15193.6c-27-4.7-63.4-22.4-77.8-37.8c-7-7.5-16.8-13.5-21.9-13.5s-11.2-2.8-13.1-6.1c-5.6-9.3-38.7-26.1-59.7-30.3
		c-12.1-2.3-20.5-7.5-23.8-14c-6.1-12.6-39.2-36.8-55.5-41c-7-1.9-14-7.9-16.3-13.5c-4.7-12.1-14-16.8-27.5-13.1
		c-10.7,2.8-13.1-2.8-4.2-11.7c4.2-4.2,3.7-5.6-2.3-5.6c-4.2,0-7.9,2.3-7.9,4.7c0,2.8-2.3,4.7-5.1,4.7c-3.7,0-4.2-7-2.3-21.9
		c2.8-21.9,2.8-22.4-5.1-12.6c-12.6,14-34.5,17.2-54.1,7c-9.3-4.7-15.4-10.3-13.5-11.7c1.4-1.9-0.9-1.9-5.6,0
		c-6.5,2.8-7.9,0.9-6.5-7.9c0.9-8.9-0.5-11.2-8.9-10.7c-7.5,0-10.7-2.3-10.7-7.9s-5.1-9.3-14.9-11.2c-8.4-1.9-20-7.5-25.6-13.1
		c-6.1-5.1-18.6-10.7-28-12.6c-10.7-1.9-17.2-5.1-16.3-8.9c0.5-3.3-0.9-4.7-3.3-3.3c-7,4.7-19.1-2.3-19.1-11.2c0-4.7-3.3-10.7-7-14
		c-5.1-4.2-7-4.2-7-0.5c0,3.7-3.3,3.3-10.3-1.4c-5.6-4.2-14-7.5-18.6-7.5s-8.4-2.8-8.4-6.1c0-3.7-8.4-9.3-19.1-12.6
		c-14-4.7-18.2-8.4-16.8-14.5c2.8-10.3-8.9-27.5-18.2-27.5c-3.7,0-10.7-6.1-14.9-14c-5.6-10.3-11.2-14-20.5-14s-13.1-2.3-13.1-8.4
		c0-5.6-6.5-10.3-21.4-14.5c-13.5-4.2-29.8-14.5-44.7-28.9c-13.1-12.6-26.6-22.8-30.3-22.8c-3.3,0-8.4-5.1-10.7-11.7
		c-2.3-6.5-6.1-11.7-7.9-12.1c-2.3,0-7.9-0.9-13.1-1.9c-4.7-0.9-11.2,0-14,2.3c-5.6,4.7-25.6-9.3-53.6-38.2
		c-9.8-9.8-21-17.7-25.2-17.7c-4.7,0-9.3-4.2-10.7-9.3c-1.4-5.1-4.2-8.4-6.1-7c-4.2,2.8-23.3-23.3-23.3-32.6c0-4.7-3.3-7-7.9-6.1
		c-8.4,0.9-41.5-28-36.8-32.2c1.9-2.3-16.8-24.7-35-42.9c-4.2-4.2-8.4-11.7-9.8-16.8c-0.9-5.1-6.1-9.8-11.7-10.7
		c-5.6-0.9-12.1-7-15.4-14.9c-3.3-7.9-7.5-13.1-9.3-11.7c-1.9,1.4-10.3-0.5-18.2-3.7c-11.2-4.7-13.1-7.5-8.9-11.7s4.2-5.6-0.5-5.6
		c-7,0-23.3-18.6-23.8-26.6c0-8.9-9.3-12.1-16.3-6.1c-5.6,4.7-7,4.7-7,0c0-3.3-6.1-13.5-14-23.3c-7.5-9.8-14-19.1-14-21
		c0-6.1-19.6-30.8-22.4-28.4c-6.1,6.5-14.9-9.3-14.9-27c0-21-6.1-30.8-19.6-30.8c-19.1,0-45.7-21-45.7-35.9c0-7-4.2-12.6-11.2-15.8
		c-6.1-2.8-12.6-8.9-14-13.1c-3.3-8.9-22.4-36.8-33.1-47.5c-3.7-4.2-7-8.9-7-10.7s-2.3-5.6-4.7-8.9c-10.7-13.1-55.9-77.4-55.9-79.7
		c0-1.4-10.3-18.2-22.8-36.8c-13.1-19.1-24.7-39.6-26.1-46.6c-1.9-6.5-8.4-15.4-14.5-19.6c-6.1-3.7-11.2-11.2-11.2-16.3
		c0-4.7-3.3-12.1-7.5-15.8c-3.7-4.2-5.6-7.5-3.7-7.5c1.9,0-0.5-4.2-5.1-9.3c-4.7-5.1-10.7-9.3-13.5-9.3c-2.8,0-16.3-12.6-29.8-28
		c-14-15.4-28-28-31.7-28c-12.1,0-16.8,24.7-19.1,104.9c-1.4,43.8-4.2,80.2-6.5,80.6c-6.5,2.3-5.1,10.7,2.8,19.6
		c4.2,4.7,9.3,23.8,11.7,42.4c2.3,19.1,9.8,54.5,16.3,78.8c6.5,24.2,14.5,53.1,17.2,64.3c2.8,10.7,7,19.6,9.3,19.6
		c1.9,0,3.7,4.2,3.7,9.3c0,9.3,1.4,12.6,15.8,40.6c4.7,8.9,5.6,15.8,3.3,17.7c-2.8,1.4,1.4,11.7,9.3,22.8
		c7.5,11.2,13.5,24.7,13.5,29.8c0,5.1,3.3,11.7,7,14.9c3.7,3.3,7,8.9,7,13.1c0,10.7,10.7,38.2,14.9,38.2c1.9,0,3.7,3.3,3.7,7
		c0,3.7,8.4,23.3,18.6,43.8c10.3,20,18.6,38.2,18.6,40.1c0,3.3,65.7,136.6,76.9,156.2c3.7,6.5,7,14.9,7,19.1s3.7,12.6,8.9,18.6
		c4.7,6.1,13.1,23.8,18.6,38.7c5.6,15.4,14.5,33.6,19.1,40.6c5.1,7,9.3,15.8,9.3,19.6c0,4.2,2.8,13.1,6.5,20.5
		c29.8,59.7,68.1,145,68.1,151.5c0,2.8,2.8,8.9,6.5,12.6c3.3,4.2,14.9,27.5,25.2,51.7c24.2,56.4,26.1,87.6,5.6,99.8
		c-17.7,10.3-38.7,9.3-48.9-1.9c-4.7-5.1-11.2-9.3-14.5-9.3s-7.5-4.2-8.9-9.8c-2.3-6.5-5.6-8.4-10.7-6.5c-18.6,7-34,7.9-41,1.9
		c-4.2-3.3-12.1-8.4-17.2-11.2c-5.6-2.8-14.9-12.1-21-21c-5.6-8.9-13.5-20-17.2-24.7c-3.7-4.2-7-9.8-7-11.7s-8.9-12.6-19.1-24.2
		c-10.7-11.7-24.2-29.4-30.8-39.6c-7-10.3-20-26.6-29.8-36.4c-9.8-9.8-19.1-22.4-21-27.5c-1.9-7-5.6-8.4-13.5-6.5
		c-8.4,2.3-13.5-0.9-23.8-14.9c-7-9.3-16.8-21-21.4-25.6c-4.7-4.7-8.4-12.1-8.4-17.2c0-4.7-4.7-12.6-10.3-17.2
		c-6.1-4.7-16.8-17.2-23.8-27.5c-7.5-10.7-22.4-27.5-34-36.8c-11.2-9.3-20.5-20-20.5-23.3c0-3.3-11.2-15.4-24.2-26.1
		c-13.5-11.2-26.1-22.4-28-25.2c-10.7-15.8-22.4-29.4-41-48.5c-21.4-22.4-30.3-34.5-35.4-48c-3.7-10.3-11.2-6.1-11.2,5.6
		c0,7-4.2,4.7-18.2-10.7c-10.3-10.7-17.2-20.5-16.3-21.9c1.4-0.9,4.2,0.9,6.1,4.2c2.3,3.7,5.1,4.2,6.5,1.9c1.9-2.8-2.3-7-8.4-9.8
		c-7.9-3.7-11.2-8.4-10.3-15.8c0.5-6.5-1.9-11.2-6.1-11.2c-3.7-0.5-7.9-1.4-9.3-1.9c-1.4-0.5-5.6-1.4-9.8-2.3
		c-10.7-1.9-32.2-24.7-32.2-34c0-7-0.9-7-4.7-0.9c-3.7,5.6-4.7,5.1-4.7-3.3c0-6.5-2.8-10.7-7-10.7c-3.7,0-10.3-5.6-14.9-12.6
		c-4.2-7.5-14-19.1-21.4-26.1c-10.7-10.7-12.1-14.5-7.5-20c4.2-5.1,3.3-6.5-7-6.5c-11.2,0-14-3.7-12.6-17.2
		c0.9-6.5-21.9-31.2-35.4-38.2c-6.1-2.8-10.7-9.8-10.7-14.9c0-8.4-18.6-20.5-30.3-19.1c-2.3,0.5-12.6-10.7-22.8-24.7
		c-11.2-15.4-20.5-23.8-24.2-22.4c-4.2,1.4-6.5-0.9-6.5-6.5c0-5.6-5.1-11.7-12.1-14.9c-17.7-7.9-39.2-29.4-39.2-38.7
		c0-4.7-3.3-8.4-7-8.4c-3.7,0-7-3.3-7-7c0-3.7-1.9-7-4.7-7c-2.3,0-4.7-3.3-4.7-7.5c0-6.1-1.4-6.5-6.1-2.3c-5.1,3.7-7.9,2.3-12.1-6.1
		c-3.3-6.1-10.7-13.5-16.3-16.3c-9.8-5.6-28-31.2-28.4-40.1c0-2.3-3.7-6.1-7.9-7.9c-8.9-3.7-11.7-17.7-3.7-17.7
		c2.8,0,4.7-2.3,4.7-5.1c0-2.8-4.2-3.7-9.3-1.9c-10.7,3.3-25.6-8.9-20.5-16.8c5.1-8.4-8.4-28-18.6-27c-17.2,0.9-21.4-0.5-21.4-7.5
		c0-3.7-4.2-7-9.3-7c-5.1,0-9.3-1.9-9.3-4.7c0-2.3-7.5-12.1-16.8-21.4c-13.5-13.1-15.8-17.7-10.7-21c5.1-3.3,4.2-4.2-3.3-4.2
		c-10.7,0-27.5-14.9-44.3-39.6c-6.1-8.9-14-16.3-16.8-16.3c-3.3,0-7.5-5.6-8.9-12.6c-3.3-12.1-67.1-97-95.1-126.8
		c-14.9-15.4-35-46.1-39.2-60.1c-1.9-5.6-8.9-16.8-15.8-25.2c-15.4-18.2-15.4-46.1,0-76.4c8.9-18.2,11.7-20.5,26.1-20.5
		c20,0,41.5,14.9,45.2,32.2c1.4,7.5,7.9,18.2,14.5,24.2s18.2,24.7,25.6,41.5c7.9,16.8,16.8,31.7,20.5,34c3.7,1.9,7,7.5,7,12.1
		c0,4.7,3.3,11.2,6.5,14.5c3.7,2.8,14,16.3,21.9,29.4c8.4,13.5,23.8,31.7,33.6,41c12.1,11.2,17.2,19.1,14.9,22.8
		c-2.3,3.7-1.9,5.1,1.4,2.8c5.1-3.3,36.8,27.5,40.6,40.1c1.9,4.2,7,9.3,11.7,10.7c4.7,1.4,10.3,6.5,11.7,10.7s12.6,18.6,24.7,31.7
		c42.4,45.7,56.9,62,56.9,65.3c0,1.9,12.1,15.4,27,29.8c88.1,88.1,122.1,127.3,122.1,139.8c0,2.8,4.2,4.7,9.3,4.7
		s13.5,6.1,19.1,13.5c5.1,7.5,14.9,16.3,21,19.6c6.1,3.3,11.2,8.4,11.2,11.2c0,3.3,12.1,18.2,26.6,33.6
		c69,71.3,146.8,154.8,160.8,171.5c8.4,10.3,17.2,19.6,19.6,20.5c1.9,0.9,7.5,5.6,11.7,10.7c4.2,5.1,30.3,32.6,57.8,61.5
		c28,28.4,54.1,57.3,58.3,64.8c4.2,7,9.3,12.6,11.2,12.6c1.9,0,3.7,2.8,3.7,6.5s11.2,16.8,25.2,29.4c13.5,12.6,43.4,43.8,65.7,69
		c45.2,50.3,62,67.6,68.1,67.6c2.3,0,4.2,2.8,4.2,6.1c0,2.8,23.3,29.8,51.3,58.7c28.4,29.4,51.3,55.9,51.3,58.7
		c0,2.3,6.5,9.8,14,16.3c7.9,6.5,14,14,14,17.2s3.3,6.1,7,6.1c8.9,0,9.3-20,0.9-27.5c-3.7-2.8-12.1-20-19.1-38.7
		c-7-18.6-16.8-42.4-21.4-52.7c-5.1-10.3-9.3-22.4-9.3-26.6s-3.3-9.8-7.5-12.1c-7.9-4.2-19.6-30.3-23.8-53.1
		c-1.4-7.5-4.2-13.1-6.1-13.1c-1.9,0-6.1-9.3-8.9-21c-2.8-11.2-10.3-30.3-16.8-42.4s-11.7-24.2-11.7-27.5s-3.7-10.7-8.9-16.8
		c-4.7-6.1-9.8-17.7-11.7-25.6c-1.9-8.4-7.5-18.6-12.6-23.3c-4.7-4.2-8.9-11.7-8.9-16.8c0-4.7-1.9-12.1-4.2-16.8
		c-2.3-4.2-7.9-19.6-12.1-33.6c-5.6-17.2-12.6-29.8-22.8-38.2c-12.1-9.8-16.8-18.6-21.4-40.6c-3.3-15.4-7.9-27.5-11.2-27
		c-2.8,0.5-5.6-4.2-6.5-10.7c-2.3-17.2-14.5-42-22.4-45.2c-3.7-1.4-6.5-7.5-6.5-13.1c0-6.1-2.3-12.6-5.1-14
		c-2.3-1.9-3.7-5.6-2.8-8.4c0.9-3.3,0-10.7-2.3-17.2c-2.8-6.5-5.1-15.8-6.1-21c-0.9-5.1-3.7-15.8-6.1-24.2
		c-2.8-8.4-3.7-19.1-2.3-24.2c1.4-5.1-1.4-12.6-7.5-18.6c-5.6-5.6-9.8-13.1-9.8-17.2c0-3.7-5.6-19.1-12.1-33.6
		c-7-14.9-14-41-16.3-60.1c-1.9-18.2-6.1-42.4-8.9-53.1c-4.7-17.2-5.6-39.2-4.2-134.7c0-31.2,2.3-54.1,6.1-59.7
		c1.4-2.8,0.9-6.1-1.9-7.9c-5.6-3.3-0.5-30.3,7.5-40.1c3.7-3.7,6.5-11.7,6.5-16.8s4.2-13.1,8.9-17.2c5.1-4.7,8.4-10.7,7-14
		c-1.4-3.3,3.3-11.7,9.8-19.6c7-7.5,15.4-17.7,19.1-23.3c5.1-7.5,12.1-9.8,32.2-10.7c23.3-0.9,34,4.7,20,10.3
		c-3.7,1.9-3.3,2.8,1.9,2.8c11.7,0.5,35.9,15.8,38.7,24.2c1.4,4.2,12.6,19.1,24.7,33.1s27,32.2,33.6,40.6
		c14.9,19.6,38.2,49.4,55.9,71.3c7.9,9.3,14,18.6,14,21c0,1.9,6.5,9.8,14,17.2c7.9,7.5,18.6,21.9,24.2,32.6
		c5.1,10.3,11.2,20,12.6,21.4c6.1,4.7,35,52.2,40.6,66.7c1.4,4.2,4.7,7.9,7,7.9s4.2,1.9,4.2,4.7c0,2.3,6.5,13.5,14,24.2
		c7.9,11.2,20,28.4,27,38.2c7,10.3,18.2,24.2,25.2,31.2c7.5,7,13.1,15.8,13.1,20c0,3.7,5.1,10.7,10.7,15.4
		c6.1,4.7,12.1,10.7,13.1,13.5c1.9,5.1,30.3,38.7,65.7,78.3c9.8,10.3,17.7,21,17.7,22.8c0,2.3,18.2,22.4,41,45.2
		c22.4,22.4,72.7,73.6,111.9,113.7c39.2,40.1,74.6,72.7,78.3,72.7c3.7,0,6.5,2.8,6.5,6.5c0,3.7,3.7,7.9,8.9,9.8
		c4.7,1.4,15.8,9.3,24.2,17.7c24.2,22.8,56.4,47.5,72.3,55.9c12.6,6.5,31.7,21.9,62.5,49.9c4.2,3.7,14.9,11.2,23.8,15.8
		c14.5,8.4,61.5,42.4,86.2,62.5c5.6,4.2,20,13.5,32.6,20c18.6,9.8,22.4,14,21.4,23.3c-0.9,10.7-0.9,10.7,5.1,1.9
		c6.1-7.9,7.5-8.4,14.5-1.4c4.2,4.2,11.7,9.3,16.8,10.7c5.1,1.4,9.3,4.7,9.3,7.5c0,2.3,7,7,15.4,11.2c7.9,3.7,18.2,8.9,21.9,11.2
		c3.7,2.8,21.9,13.1,39.6,23.3c18.2,10.3,39.6,25.2,48,32.6s21.4,14.9,28.9,16.8c7,1.4,16.8,7,21.4,12.1c4.2,4.7,10.7,8.9,14,8.9
		s8.9,2.8,12.1,6.1c12.6,11.7,34.5,25.2,45.7,28.9c6.5,1.9,15.4,7,20,10.7c13.1,11.7,38.7,26.6,90.4,52.2c26.1,13.1,48,25.2,48.9,27
		c1.4,4.2,79.2,38.2,86.7,38.2c2.3,0,14,4.2,26.1,9.8c12.1,5.1,25.6,8.4,30.3,6.5c9.3-2.8,38.7,7.9,45.2,17.2
		c7.9,10.3,4.7,38.2-5.1,50.8C2670.4,15193.6,2626.6,15201.1,2582.3,15193.6z M2355.8,15035.6c0-4.2-1.9-11.7-3.7-16.3
		c-3.3-8.4-3.7-8.4-6.5,2.3c-5.1,19.1-3.7,27.5,3.7,24.7C2353,15044.5,2356.2,15039.8,2355.8,15035.6z M2350.2,15004.4
		c-1.4-1.4-5.6-1.9-8.9-0.5c-3.7,1.4-2.3,2.8,2.8,2.8C2349.3,15007.2,2352.1,15005.8,2350.2,15004.4z M2149.3,14910.7
		c-4.7-4.7-8.9,2.3-4.7,8.4c2.8,5.1,3.7,5.1,5.6,0C2151.1,14915.8,2150.7,14912.1,2149.3,14910.7z M2093.8,14824.5
		c-1.4-3.7-2.8-2.3-2.8,2.8c-0.5,5.1,0.9,7.9,2.3,6.1C2094.7,14831.9,2095.2,14827.7,2093.8,14824.5z M368.2,14056.3
		c-1.4-2.3-6.1-4.7-9.8-4.7c-3.7,0-6.5,2.3-6.5,4.7c0,2.8,4.2,4.7,9.8,4.7C366.8,14060.9,369.6,14059.1,368.2,14056.3z
		 M237.7,13935.1c1.4-2.8-0.5-6.1-4.7-7.5c-8.9-3.7-14,0-9.3,7C227.4,13941.1,233.9,13941.1,237.7,13935.1z M943.9,13822.7
		c0-5.1-1.9-7.9-4.7-6.5c-2.3,1.4-4.7,6.1-4.7,9.8c0,3.7,2.3,6.5,4.7,6.5C942,13832.5,943.9,13828.3,943.9,13822.7z"/>
	<path d="M5763.7,15175c0-2.3,2.3-4.7,4.7-4.7c2.8,0,4.7,2.3,4.7,4.7c0,2.8-1.9,4.7-4.7,4.7
		C5766,15179.7,5763.7,15177.8,5763.7,15175z"/>
	<path d="M2907.7,14971.3c-5.1-4.7-14-17.7-20-29.4c-5.6-11.7-20.5-32.6-32.2-46.6c-12.1-14-24.7-31.7-28.4-39.2
		c-3.7-7.5-9.8-14.5-14-15.8c-7.9-2.8-69.9-63.4-69.9-68.5c0-1.4-7.9-11.2-17.2-20.5c-34.5-34.5-76-80.2-76-83.4
		c0-1.9-8.4-11.2-18.6-21.4c-10.3-9.8-18.6-20.5-18.6-23.8c0-2.8-10.3-14-22.8-24.7c-12.6-10.7-25.6-25.6-28.9-33.1
		s-8.4-12.6-11.7-11.2c-8.4,3.3-12.6-7.5-6.5-14.9c4.7-6.1,3.3-7.5-8.4-9.8c-8.4-1.9-15.8-7-19.1-14c-2.8-6.1-7.5-11.2-10.3-11.2
		c-6.1,0-20.5-15.8-29.8-33.6c-4.2-7.5-9.3-13.1-12.1-13.1c-7,0-22.4-19.1-22.8-28c0-10.7-18.6-36.8-18.6-26.6c0,4.2-3.3,7.9-7,7.9
		c-3.7,0-7-2.8-7-6.5c0-3.7-6.1-13.1-14-21.4c-7.5-8.4-14-17.2-14-20c0-2.3-6.1-10.3-13.1-16.8c-17.7-16.3-33.6-39.6-33.6-49.4
		c0-5.1-2.3-7-6.5-5.6c-7.5,2.8-40.1-31.2-40.1-41.5c0-3.7-3.3-12.1-7-18.2c-3.7-6.5-10.3-17.2-14.5-23.8
		c-4.7-7.9-8.9-10.3-12.6-7.5c-3.3,1.9-10.3,4.2-16.3,4.7c-5.6,0-16.3,4.7-23.8,9.8c-7.5,5.6-16.3,9.8-20,9.8
		c-3.3,0-14.5,3.3-25.2,6.5c-10.3,3.7-27,7.9-37.3,9.3c-9.8,0.9-22.4,3.3-27.5,4.7c-13.5,4.2-68.1-16.3-74.1-27.5
		c-2.8-5.1-7.9-11.2-10.7-13.1c-3.3-1.9-6.1-6.1-6.1-8.9c0-3.3-4.2-9.8-8.9-14.9c-4.7-5.6-11.2-20.5-14-34c-4.2-21-3.7-27,5.1-46.6
		c14-32.2,38.2-60.1,57.3-66.7c8.9-2.8,16.3-7,16.3-8.9s7.9-6.1,17.7-8.9c9.8-3.3,21.9-9.8,27-15.4c8.9-9.8,8.9-9.8-0.5-17.2
		c-5.6-4.7-19.6-24.2-31.7-43.8c-12.6-19.6-25.6-38.2-28.9-41c-9.8-8.4-4.7-42,11.7-74.6c2.3-4.7,11.7-7.5,31.2-7.9l28-1.4
		l14.5,20.5c8.4,11.7,14.9,22.8,14.9,25.6s5.6,11.7,13.1,20c7,8.4,17.7,26.1,23.8,38.7c5.6,13.1,12.6,27,14.9,31.2
		c2.3,4.7,4.2,10.3,4.2,13.1c0,3.7,25.6,40.6,35.4,50.8c4.7,5.1,20.5-19.6,24.7-37.3c2.3-10.7,8.9-25.6,14.5-33.1
		c5.6-7.5,10.7-17.7,11.7-23.3c0.9-5.1,7-15.8,13.1-24.2c6.1-7.9,12.1-18.2,14-22.8c1.9-4.7,5.1-7,7.9-5.6c2.3,1.4,4.7-0.9,4.7-6.1
		c0-9.8,16.3-26.6,31.2-30.8c5.1-1.9,12.6-6.1,15.4-9.8c3.3-3.7,10.7-7,16.8-7c6.5,0,15.4-2.3,20-5.6c7-4.2,11.7-4.2,21.4,0
		c6.5,3.3,18.2,5.6,25.6,5.6c7.5,0,14.5,1.9,15.8,3.7c1.4,2.3,14.5,6.5,29.4,9.8c14.9,3.3,36.4,10.3,48,15.4
		c11.7,5.1,27.5,12.1,35,14.9c7.9,3.3,23.3,10.3,35,15.4c40.1,18.6,55,24.7,58.7,24.7c1.9,0,7,3.3,11.7,7.5
		c10.7,9.8,18.2,4.7,18.2-11.7c0-7,3.7-20,7.9-28.9c4.7-8.9,8.9-20,9.3-24.7c0.9-5.1,8.9-18.2,18.2-29.4c15.4-18.6,18.2-20,38.7-20
		c12.1,0,31.7,2.8,43.4,6.5c12.1,3.3,24.2,4.7,27.5,2.3c3.3-1.9,8.4-1.9,11.2,0.5c2.3,1.9,24.7,14,48.9,26.6
		c24.2,12.1,46.1,25.2,48,28.4c1.9,2.8,6.5,5.6,10.3,5.6s8.4,2.8,10.3,6.1c1.9,3.7,9.3,9.8,15.8,14.5c7,4.2,18.2,16.8,24.7,27.5
		c12.1,19.1,37.8,38.7,42,31.7c1.4-1.9,1.4-15.4,0-30.3c-2.8-32.2,5.6-94.2,14.9-108.6c3.7-5.6,6.5-13.5,6.5-17.7
		c0-3.7,5.1-9.3,11.7-12.6c6.1-2.8,10.3-7,8.9-8.9c-0.9-1.9,5.6-14,14.9-26.1c13.5-17.7,21.4-23.3,38.7-28
		c26.6-7,39.6-4.2,47.1,10.7c7,12.6,14,14.9,14,4.2c0-8.9,24.2-9.3,41-0.5c7,3.3,24.2,12.1,38.2,19.1c40.6,20,53.1,27.5,57.3,34
		c2.3,3.3,7.9,4.7,12.6,3.3c6.1-1.9,19.6,5.1,43.8,23.3c19.1,14,36.8,25.6,38.7,25.6c2.3,0,12.1,7.5,21.4,16.3
		c9.3,8.9,20,16.3,23.3,16.3c2.8,0,21,11.7,39.6,25.6c18.6,14,36.4,25.6,38.7,25.6c2.3,0,4.2,3.3,4.2,7c0,4.2,4.7,8.9,10.7,11.2
		c6.1,2.3,13.5,7.5,16.8,11.7s8.4,7.5,10.7,7.5c4.7,0,45.2,30.8,67.6,51.3c8.4,7.9,17.2,14,20,14c2.3,0,5.6,5.1,7.5,11.7
		c1.9,8.4,5.1,11.2,10.7,9.3c4.2-0.9,13.5,2.8,21,9.3c7.5,6.1,17.2,12.6,21.9,14c5.1,1.9,8.9,5.1,8.9,7.5c0,2.3,5.1,6.5,11.7,8.9
		c6.5,2.3,11.7,7,11.7,10.3c0.5,6.1,28.4,22.4,39.2,22.4c3.3,0,11.2,6.5,17.2,14.9s14.9,18.6,19.6,23.3c4.2,4.7,7.9,11.2,7.9,14.9
		c0,3.7,1.9,7.5,4.7,8.4c6.5,1.9,0,36.4-7,36.4c-2.8,0-9.3-4.2-14-9.3c-5.6-6.1-11.7-8.4-18.6-6.5c-7.5,1.9-17.2-2.3-34-14
		c-18.2-13.5-27.5-16.8-43.8-16.8c-14.9,0-23.3-2.8-29.4-9.3c-4.7-5.1-10.7-9.3-14-9.3c-8.4,0-26.1-26.6-22.8-34.5
		c1.9-5.1-1.4-7.9-10.7-10.3c-46.6-10.7-77.4-22.8-88.6-34.5c-7-7.5-14-12.6-16.3-11.2c-1.9,1.4-3.7-1.9-3.7-7
		c0-7.5-2.8-9.8-13.5-9.8c-7.5,0-14.5-2.8-15.8-6.5c-1.4-3.3-9.8-7.5-19.1-9.3c-9.3-1.9-23.3-9.3-31.7-16.8
		c-8.4-7.9-16.8-14-18.6-14c-2.3,0-3.7-2.8-3.7-6.1c0-2.8-5.6-8.4-12.6-11.2c-7.5-3.3-18.2-10.7-24.7-16.8
		c-6.5-5.6-21.9-15.8-35-22.8c-12.6-6.5-31.7-19.6-42-28.9c-9.8-9.3-31.7-23.3-47.5-31.7c-16.3-7.9-32.2-17.7-35-21
		c-2.8-3.3-10.7-6.1-18.2-6.1c-7.5,0-13.5-1.4-13.5-3.7c0-6.5-28-15.8-49.9-16.3c-21.9-0.9-21.9-0.9-26.6,17.7
		c-2.8,10.3-4.7,48-4.2,83.9c0.5,55.9,2.3,71.3,13.1,108.6c13.1,45.2,32.2,91.8,39.6,96.5c2.3,1.4,6.5,10.7,9.3,21
		c2.8,9.8,11.7,25.2,20,34c21,22.4,31.2,35.4,31.2,39.6c0,8.9,98.4,111.9,121.2,126.8c6.1,3.7,24.7,21,42,37.8
		c17.2,17.2,38.2,35,46.1,39.6c7.9,4.7,15.4,11.7,16.8,15.8c1.4,4.2,8.4,10.7,15.8,15.4c7.9,4.7,15.4,12.1,16.8,17.2
		c1.4,4.7,9.8,13.1,18.2,18.6c8.9,5.1,19.1,14.5,23.3,21c4.2,6.1,14.9,14.9,23.8,19.1c9.3,4.2,20.5,13.1,24.7,19.1
		c17.2,24.2,44.3,52.7,50.3,52.7c3.7,0,6.5,2.3,6.5,5.6c0,3.3,9.3,14,20.5,24.7c11.2,10.3,21.4,22.8,23.3,28
		c1.4,5.1,9.8,12.6,18.2,16.8c7.9,3.7,16.8,11.7,19.6,17.2c2.3,5.6,7,10.3,10.3,10.3s7.5,2.8,9.3,6.5c3.3,6.1,58.3,66.7,105.3,116.1
		c14,14.9,17.2,21.4,14.9,30.3c-4.7,18.2-21.9,38.2-33.1,38.2c-5.6,0-12.6,2.8-15.4,6.5c-10.3,12.1-28,13.1-46.1,1.9
		c-9.3-5.6-19.1-12.6-21.9-15.4c-2.3-2.8-10.3-8.9-17.2-13.1c-7-4.7-16.3-14.5-20-21.9c-4.2-7.9-9.8-14-13.5-14
		c-3.3,0-9.8-4.2-14.5-9.3c-4.7-5.1-10.7-9.3-13.5-9.8c-2.8,0-18.6-14.5-35.4-32.6c-16.8-17.7-42.4-44.7-57.3-60.6
		c-14.9-15.4-25.6-29.8-24.2-32.2s-11.2-13.1-28-23.8c-16.8-11.2-31.2-23.3-32.6-27.5c-1.4-3.7-13.1-18.2-25.6-31.7
		c-12.6-14-24.2-29.8-26.1-35c-1.9-5.6-4.2-11.2-6.1-12.6c-1.4-1.4-11.2-12.6-21.4-25.6c-32.2-40.1-36.4-44.3-45.7-44.3
		c-4.7,0-9.8-4.2-11.2-9.3c-1.4-5.1-6.1-9.3-10.3-9.3c-4.7,0-10.3-6.5-14-16.3c-3.3-8.9-7.9-16.3-10.3-16.3c-2.8,0-4.7-3.7-4.2-7.9
		c1.9-17.2-5.6-28.9-20.5-31.7c-26.6-5.6-29.8-7.5-32.6-18.6c-1.9-7.9-9.3-14.5-21.4-19.6c-10.3-4.7-18.6-9.8-18.6-11.7
		c0-2.3-4.2-3.7-9.3-3.7c-5.1,0-9.3-1.9-9.3-4.7c0-7.9-34.5-22.4-122.1-51.7c-90.4-30.3-120.3-34.5-140.8-21
		c-11.7,7.5-20.5,3.3-14.5-6.5c1.9-2.8-2.3-3.7-10.3-1.9c-11.2,2.3-19.6-2.3-55-30.3c-22.8-18.2-42.9-33.1-45.2-33.1
		c-1.9,0-3.7-4.2-3.7-9.3c0-6.1-3.3-9.3-9.3-9.3c-5.1,0-15.8-7.5-24.2-16.8c-8.4-9.3-17.7-19.6-20.5-22.4
		c-2.8-3.3-8.4-11.7-12.6-19.1c-4.2-7.9-14-21-21.9-29.8c-22.8-24.7-37.8-50.3-34-59.2c2.3-6.5,1.4-7.5-5.1-5.1
		c-5.6,2.3-12.1,0-19.1-7c-15.4-15.4-24.7-22.4-29.4-22.4c-2.3,0-8.4-5.1-13.5-11.2c-7-7.9-13.1-10.7-20-8.9
		c-5.6,1.4-20.5-1.9-34-7.9c-13.5-5.6-28.4-12.1-33.6-14.5c-5.1-1.9-19.6-7.9-32.2-13.1c-12.6-5.6-25.6-9.8-29.8-9.8
		c-3.7,0-14-5.1-22.4-11.7c-16.3-12.1-29.8-15.4-29.8-6.1c0,2.8-3.3,1.9-8.4-2.3c-20-18.2-55.9-3.7-66.7,27
		c-3.3,8.9-7.5,16.3-9.3,16.3c-3.3,0-8.9,10.7-29.8,56.9c-4.2,9.8-8.4,24.2-8.4,32.2c-0.9,16.8,0.5,17.7,65.7,51.3
		c21.4,11.2,42.9,24.2,47.1,29.8c4.2,5.1,16.3,14,26.1,19.1c10.3,5.6,19.1,13.1,19.1,16.3c0.5,3.7,0.9,9.3,1.4,13.1
		c0.5,5.1,1.9,5.1,7.5,0.5c5.6-4.7,9.8-4.7,18.6-0.9c6.5,3.3,11.7,7.5,11.7,9.8c0,2.3,8.9,8.9,20,14.5c10.7,5.6,24.2,15.4,30.3,21.4
		c6.1,6.1,12.1,11.2,14,11.2s13.1,8.9,24.7,20c11.7,10.7,33.1,30.3,47.5,43.4c14,13.5,27.5,24.7,30.3,25.6
		c7.9,3.3,65.3,82.5,77.8,108.6c7,14,13.5,34.5,14.9,45.2c2.3,16.8,1.4,20.5-8.4,28c-6.1,4.7-14.9,8.9-19.6,8.9s-9.3,2.8-10.7,6.5
		c-4.7,12.1-34.5,13.1-63.4,2.8c-14.9-5.1-28.9-9.3-31.7-9.3c-7.9,0-18.6-12.6-28.4-31.7c-10.7-20.5-11.2-28.4-1.9-42
		c6.5-8.9,6.5-11.7,0.5-22.8c-3.7-7.5-12.6-19.1-19.6-27c-6.5-7.5-17.7-21.4-24.7-30.3c-6.5-8.9-13.5-17.2-14.9-18.6
		c-1.9-1.4-8.9-6.5-15.8-11.7c-32.2-22.8-66.2-51.3-79.2-64.8c-15.4-15.8-48.9-39.6-76.4-54.1c-9.8-4.7-25.2-16.3-34.5-25.6
		c-16.3-16.3-31.2-19.6-31.2-7c0,6.5,30.8,48,52.7,70.9c4.2,4.7,7.9,10.3,7.9,12.1s7.5,10.7,16.3,19.6c8.9,8.9,16.3,19.6,16.3,24.2
		c0,4.7,3.3,8.4,7.5,8.4c7.5,0,29.8,20.5,29.8,27c0,1.9,19.1,23.3,42,47.5c22.8,24.2,42,47.1,42,50.3c0,2.8,2.3,5.6,4.7,5.6
		c6.1,0,65.3,59.7,65.3,65.7c0,2.3,3.3,4.2,7,4.2c3.7,0,7,3.7,7,8.4s11.7,18.2,25.6,30.8c14,12.1,25.6,24.2,25.6,26.6
		c0,4.2,39.2,47.5,73.6,80.2c10.7,10.7,19.6,21.9,19.6,25.2c0,3.3,1.9,6.1,4.2,6.1c2.3,0,12.6,8.9,22.4,19.6
		c19.1,20.5,78.3,82,132.8,138c26.1,26.6,34.5,38.2,38.7,55.9c3.7,14.9,4.2,24.7,0.9,31.2c-2.8,5.1-6.1,12.6-7.9,16.3
		c-1.9,3.7-9.3,8.9-16.8,11.2c-7.5,1.9-17.2,5.6-21.4,7.9C2934.3,14981.6,2917.9,14980.2,2907.7,14971.3z M3170.6,14198
		c2.3-7-13.1-12.6-18.6-7c-2.3,2.3-2.8,6.5-0.9,9.8C3154.7,14206.8,3168.3,14205,3170.6,14198z M2142.8,14148.1
		c24.7-8.9,47.5-32.2,43.4-45.2c-1.9-5.6-4.2-8.9-5.6-7.5c-1.4,1.4-9.8-0.5-18.6-4.2c-8.9-3.7-18.2-6.1-20-4.7
		c-2.3,1.4-5.1,0.5-7-2.3s-7.5-1.4-15.4,3.3c-17.7,11.7-21.9,16.3-30.8,33.6c-9.8,18.2-4.7,27,17.2,29.8c8.4,0.9,15.8,1.9,17.2,2.3
		C2124.6,14153.7,2133,14151.4,2142.8,14148.1z M3052.2,14139.2c6.1-9.3-3.3-43.4-16.3-57.8c-4.7-5.1-8.4-12.6-8.4-16.8
		s-3.3-9.8-7-13.1c-6.5-5.6-16.3-24.2-22.8-42.9c-1.4-4.7-5.6-8.4-9.3-8.4s-12.1-4.7-18.2-10.3c-14.5-14.5-35.4-31.7-37.8-31.7
		c-1.4,0-8.4-5.6-15.8-12.6c-21-19.6-24.2-21.4-55.9-35.4c-36.4-15.4-38.2-15.4-38.2-0.9c0,6.5-2.3,11.7-5.1,11.7
		c-3.7,0-3.7,2.3,0.5,7c3.3,3.7,4.7,12.1,3.7,18.2c-2.8,13.1,21.9,46.6,49.9,67.6c8.4,6.5,17.7,16.8,20.5,22.4
		c2.8,5.6,13.1,15.8,23.8,22.4c10.3,6.5,18.6,14,18.6,16.3c0,2.8,3.3,4.7,7.5,4.7s9.8,6.5,12.6,14c2.8,7.9,7.5,14,10.3,14
		s10.3,4.7,16.3,10.7C3014,14148.6,3041.5,14157,3052.2,14139.2z"/>
	<path d="M1869.1,14774.1c-1.4-2.3,0.5-4.7,4.2-4.7c4.2,0,7.5,2.3,7.5,4.7c0,2.8-1.9,4.7-4.2,4.7
		C1873.8,14778.8,1870.5,14776.9,1869.1,14774.1z"/>
	<path d="M1912.5,14580.2c-12.1-6.5-13.1-8.9-13.1-36.8c0-28.4,4.2-42.9,17.2-56.9c2.8-3.3,6.5-6.1,8.4-6.1c1.4,0,8.4-6.1,14.9-14
		c9.3-11.7,14.9-14,31.7-14c11.2,0,21.9,2.3,23.3,4.7c1.4,2.8,6.5,4.7,10.7,4.7c4.2,0.5,14.9,9.8,23.3,21c14.5,20,14.5,21,5.6,25.6
		c-9.8,5.1-23.3,32.6-23.3,47.1c0,6.5-3.3,8.9-13.1,8.9c-7,0-15.4,2.3-18.2,5.1c-2.8,2.8-12.1,6.5-20.5,8.4
		c-8.9,1.9-20,5.1-25.2,6.5C1929.3,14585.8,1919.5,14583.9,1912.5,14580.2z"/>
	<path d="M9823.7,14415.2c4.7-15.8-0.5-21.4-13.5-14.5c-6.5,3.7-10.3,3.3-14.5-1.9c-6.5-7.9-14-9.3-14-2.3c0,2.8,4.7,6.5,10.3,8.9
		c9.8,3.7,9.8,3.7-2.8,7c-7,1.9-14,1.9-16.3,0.9c-1.9-1.4-4.2-42.9-4.7-92.3c-2.3-146.4-3.7-174.3-9.3-184.6
		c-5.6-10.7-6.5-48.5-2.3-81.6c2.3-15.4,5.6-22.4,11.7-24.2c5.1-1.9,8.9-7,8.9-12.1c0-14,17.2-28.4,29.4-24.7
		c5.6,1.9,12.1,5.6,14,8.4c2.8,3.3,3.3,2.3,1.9-2.8c-2.8-7.9,8.4-14.9,15.8-10.3c2.8,1.4,12.1-0.9,21-5.1c29.8-14,90.4,4.2,90.4,28
		c0,9.3-1.9,10.3-24.2,9.8c-13.5-0.5-28.4,0.9-33.1,3.3c-4.2,1.9-15.8,4.2-25.2,5.1c-10.3,0.9-20,5.1-25.2,11.2
		c-4.2,5.6-11.2,10.3-15.4,10.3c-3.7,0-8.4,2.3-9.8,4.7c-1.4,2.8-0.5,4.7,2.3,4.7s4.7,12.1,3.7,32.6c-0.5,24.2-2.8,35-9.3,42
		c-7.9,8.4-7.9,8.9,1.9,15.8l10.3,7.5l-10.3,7.5c-5.6,3.7-10.3,10.3-10.3,14c0,7.5,7.5,8.9,11.7,1.9c6.1-9.8,15.8-4.2,18.6,10.7
		c1.9,9.3,7,17.2,13.1,20c5.6,2.3,9.8,7,9.3,10.3c-1.9,7.9,5.6,7,12.6-1.4c4.7-5.6,4.7-7-1.9-7c-9.8,0-10.3-24.7-0.5-32.6
		c4.2-3.3,6.1-9.8,4.7-14.5c-2.3-6.5-0.9-7.9,4.2-6.1c4.2,1.9,10.7,0.5,14.5-2.8c6.1-5.1,9.8-3.7,21,7.5c7.5,7.5,14,16.3,14,20
		c0,3.3,2.8,5.1,7,3.7c8.9-3.7,13.5,4.7,12.6,21.9c-0.9,7.5,1.4,15.4,4.7,17.2c3.3,1.9,4.7,5.1,2.8,6.5c-1.4,1.9-7.5,0-12.6-3.3
		c-7.9-4.7-10.7-4.7-13.5-0.5c-2.3,3.7-13.1,5.6-26.6,5.1c-13.1,0-30.3,0-39.2,0.5c-14.9,0.5-15.4,0.9-12.6,16.3
		c1.9,10.3,0.9,17.2-3.3,20.5c-4.2,3.7-6.5,16.8-6.5,38.7c-0.5,26.6,1.4,35,8.4,42c12.1,12.1,15.8,33.6,8.9,50.8
		c-5.6,13.1-6.5,13.5-14,7c-8.9-7.9-14-5.1-14,7.9c0,4.7-1.9,8.4-4.2,8.4C9821.4,14429.2,9821.4,14423.6,9823.7,14415.2z
		 M9854,14383c-1.4-2.8-5.1-5.1-7.9-5.1s-2.8,2.8,0.9,7C9853.6,14392.8,9859.2,14391,9854,14383z M9795.8,14380.7
		c0-7-13.5-14-18.2-9.3c-1.4,1.4,1.4,5.6,6.1,9.3C9794.8,14388.6,9795.8,14388.6,9795.8,14380.7z M9833.1,14370.9
		c-4.2-5.1-4.2-7-0.5-7c8.9,0,0.5-24.7-14-39.2c-12.1-12.6-13.1-13.1-12.1-3.7c0,5.6,1.4,8.9,2.8,7.9c3.3-3.7,19.1,12.6,19.1,19.1
		c0,3.3-2.8,5.1-6.5,3.7c-7.5-2.8-24.2,21-18.2,26.1c5.1,5.1,31.2,7.9,33.1,3.3C9837.7,14379.3,9835.9,14374.6,9833.1,14370.9z
		 M9800.4,14357.4c0-1.4-1.9-3.7-4.7-5.1c-2.3-1.4-4.7-0.5-4.7,1.9c0,2.8,2.3,5.1,4.7,5.1
		C9798.6,14359.3,9800.4,14358.3,9800.4,14357.4z M9843.8,14268.8c2.8-7-10.3-21.4-18.6-21.4c-5.6,0-11.7,18.2-7.9,24.2
		C9821.4,14277.7,9841,14275.8,9843.8,14268.8z M9802.8,14242.7c1.4-2.3,0.9-4.7-1.9-4.7c-2.3,0-6.1,2.3-7.5,4.7
		c-1.4,2.8-0.9,4.7,1.9,4.7C9797.6,14247.4,9801.4,14245.5,9802.8,14242.7z M9845.2,14224.5c-6.1-9.3-12.1-5.1-12.1,7.5
		c0,11.7,0.5,12.1,7.5,5.1C9844.7,14232.9,9846.6,14227.3,9845.2,14224.5z M9821.4,14219.4c1.4-2.3,0.5-4.7-1.9-4.7
		c-2.8,0-5.1,2.3-5.1,4.7c0,2.8,0.9,4.7,1.9,4.7C9817.7,14224.1,9820,14222.2,9821.4,14219.4z M9917,14203.6c0-1.4-1.9-3.7-4.7-5.1
		c-2.3-1.4-4.7-0.5-4.7,1.9c0,2.8,2.3,5.1,4.7,5.1C9915.1,14205.4,9917,14204.5,9917,14203.6z M9784.6,14099.6
		c-5.1-5.1-8.9,2.8-5.1,11.2c3.7,7.9,3.7,7.9,5.6,0C9786.5,14106.1,9786,14101,9784.6,14099.6z M9814.4,14100.1
		c0-3.7-2.3-5.6-4.7-4.2c-2.8,1.9-3.7,5.1-2.3,7.5C9811.6,14109.9,9814.4,14108.5,9814.4,14100.1z M9800.4,14037.6
		c0-5.1-1.9-9.3-4.7-9.3c-2.3,0-4.7,4.2-4.7,9.3c0,5.1,2.3,9.3,4.7,9.3C9798.6,14047,9800.4,14042.8,9800.4,14037.6z"/>
	<path d="M9059.7,14418c-4.2-4.7-10.3-6.5-17.2-4.7c-10.3,2.8-11.2,1.4-11.2-14.9c0-10.3,3.3-31.7,7-48
		c7.9-33.6,10.3-147.3,6.1-302.5c-0.9-26.6-0.5-48.9,0.9-49.9c5.1-3.3,19.6,11.2,16.3,16.3c-1.9,3.3,1.9,1.9,8.9-2.3
		c6.5-4.2,15.4-6.5,19.6-5.1c5.1,1.9,7,0.9,5.1-3.7c-5.6-14,3.3-10.7,18.2,7c10.7,13.1,16.3,25.2,18.2,40.6
		c5.1,41,6.5,44.3,16.8,41.5c8.9-2.3,9.3-0.9,7,13.1c-3.3,17.7,5.1,27.5,12.1,14.5c4.2-7.5,5.1-7.5,13.5,0
		c4.7,4.2,8.9,13.1,8.9,19.1c0,14.5,13.5,19.6,21.4,8.4c3.3-4.7,5.1-9.8,4.2-11.7c-1.4-1.9,0.9-6.1,4.7-9.3c4.7-4.2,5.6-7.9,2.3-14
		c-4.7-8.9-0.9-42,5.1-42c1.9,0,5.1,2.8,7,5.6c2.3,3.7,6.1-3.3,9.3-17.2c2.8-13.1,5.6-19.6,6.1-14.9c0.9,17.7,9.8,6.5,9.8-13.5
		c0-19.6,0.9-21.4,16.8-28c34.5-14.5,41.5-14,52.7,5.6c14,23.3,11.7,46.6-5.6,59.7c-10.3,7.5-14.5,8.4-21.4,4.2
		c-7.5-4.7-9.3-3.7-14,6.1c-7.5,16.3-6.5,17.2,7.5,14.5l12.6-2.3l-14.9,12.1c-16.8,14-18.6,19.6-7,19.6c7,0,7,0.5-0.5,6.1
		c-7.9,5.6-7.9,7-1.9,13.1c6.5,5.6,6.5,7,0,11.7c-5.6,3.7-5.6,7-1.4,14.9c2.8,5.6,3.7,10.3,1.4,10.3c-2.3,0-6.5,5.1-9.3,11.7
		c-2.8,6.5-8.4,11.7-12.6,11.7c-3.7,0-7,2.3-7,5.1s4.2,3.7,9.3,1.9c10.7-3.3,11.2-0.9,4.2,13.1c-14.9,28.4-42.4,41.5-48,22.8
		c-4.2-13.1-27-32.6-29.4-25.2c-2.8,7-10.7,7.5-10.7,0.5c0-8.4-28-41.5-41.5-48c-6.5-3.7-17.2-15.4-23.8-25.6
		c-6.5-10.7-13.1-19.1-14.5-19.1c-1.9,0-4.2,6.5-5.1,14c-1.4,9.8,0.5,16.3,6.5,21.9c10.3,9.3,10.7,21.4,0.9,36.8
		c-7,10.7-7,12.1,0,20c5.1,6.1,6.5,9.8,3.3,12.1c-8.4,4.7-6.1,16.8,5.1,25.6l10.3,7.9l-15.4,15.4c-9.3,9.8-13.1,16.3-9.8,18.6
		c2.8,1.9,3.7,6.5,2.3,10.3c-1.9,4.2,0.5,14.9,4.2,24.7c9.3,21.9,9.8,21-4.2,21c-13.5,0-14.5,3.3-4.7,14c8.9,9.8,15.4,40.1,7.9,35.4
		c-3.7-2.3-5.6,0-5.6,6.1c0,5.6-2.8,9.8-5.6,9.8c-3.3,0-10.3,1.4-15.8,2.8S9063,14422.2,9059.7,14418z M9222.4,14214.8
		c0-6.1-13.1-11.7-17.7-7.5c-1.4,1.9,0,5.1,3.7,7.5C9217.8,14220.8,9222.4,14220.4,9222.4,14214.8z M9124.5,14056.7
		c-5.6-20.5-9.3-23.3-18.6-12.1c-4.2,4.7-4.2,7-0.5,7c2.8,0,5.1,2.3,5.1,5.6c0,6.1,14.5,23.3,17.2,20.5
		C9128.7,14076.8,9127.3,14067.5,9124.5,14056.7z M9097.5,14055.3c-2.8-2.8-7-3.3-10.3-1.4c-3.7,2.3-2.8,5.1,3.3,9.3
		C9099.8,14070.3,9105.4,14063.3,9097.5,14055.3z M9318.9,14041.4c-1.4-3.7-2.8-2.3-2.8,2.8c-0.5,5.1,0.9,7.9,2.3,6.1
		C9319.9,14048.8,9320.3,14044.6,9318.9,14041.4z"/>
	<path d="M9795.8,14421.7c0-4.7,12.6-15.4,15.4-13.1c4.2,4.7-1.9,15.8-8.9,15.8C9798.6,14424.5,9795.8,14423.1,9795.8,14421.7z"/>
	<path d="M8838.3,14407.7c-1.9-5.1-5.6-6.1-13.1-3.7c-14.9,4.7-28.4,5.6-34,2.3c-2.3-1.4-9.3-2.8-14.9-3.3c-6.1,0-14.5-4.7-18.6-9.8
		c-5.1-5.6-17.2-10.7-30.8-12.6c-18.2-2.8-23.3-6.1-28.9-17.2c-4.2-7.5-10.7-13.5-15.4-13.5c-17.7,0-21.9-7.9-22.4-42
		c-0.5-17.7,0.9-32.6,2.8-32.6c1.9,0,3.3-3.7,2.8-7.9c-0.5-6.1,3.7-8.9,13.5-9.8c7.5-0.9,14.9-3.7,16.3-6.1
		c4.2-6.1,32.6,15.4,32.6,24.7c0,5.6-2.3,7-7.5,5.1c-6.1-2.3-6.5,0.5-4.7,17.2c1.4,11.2,0,24.2-2.8,29.4c-4.2,7.9-3.3,11.2,5.6,18.2
		c5.6,4.7,14.9,8.4,20.5,8.4c5.6,0,14.5,3.3,20,7c5.6,3.7,11.2,5.1,12.6,2.8c1.4-2.3,25.6-4.2,54.1-4.2c39.6,0.5,53.6-1.4,62.5-7.5
		c15.4-9.8,24.7-10.3,16.8-0.5c-7,8.4-0.5,9.3,16.3,1.4c6.5-2.8,11.7-7.5,11.7-10.3s3.3-0.9,7,3.7c6.5,8.9,7,8.9,7-3.3
		c0-7,1.9-12.6,4.2-12.6c1.9,0,3.7-7,3.3-14.9c-0.5-10.7-4.7-18.6-13.1-26.1c-7.5-6.1-13.1-14-13.1-18.2c0-4.7-2.8-5.6-9.8-3.7
		c-6.1,2.3-15.4-0.9-26.6-8.4c-9.8-6.1-22.4-13.1-28.9-14.9c-6.5-1.9-22.8-9.8-36.4-17.2c-14-7.5-26.1-13.1-27-11.7
		c-1.4,1.4-2.8,22.8-3.3,48l-0.9,46.1l-12.6,1.4c-10.3,1.4-13.1-0.5-13.1-7.9c0-5.1-2.8-11.2-5.6-13.1c-9.3-6.1-22.8-34.5-19.1-40.1
		c6.1-9.8,5.1-24.2-2.3-32.6c-4.2-4.2-7.5-12.6-7.9-18.6c-0.5-5.6-2.3-27.5-4.7-48.5c-3.7-42,4.2-87.6,14.5-83.4
		c3.3,1.4,5.1-0.9,4.7-4.2c-1.4-8.4-7.5-14.9-7.5-7.9c0,3.3-1.9,5.6-4.7,5.6s-4.7-14.5-4.7-34c0-31.7,0.9-35,11.2-39.6
		c7.9-3.3,12.6-3.3,15.8,0c3.7,3.7,6.1,1.9,7.9-6.1c3.7-15.8,21-17.2,21-1.9c0,7.9,1.9,10.7,6.5,8.9c9.3-3.7,13.1,18.2,5.6,33.1
		c-4.7,9.3-5.6,16.3-2.3,24.2c5.6,14.9,5.6,34-0.5,34c-2.3,0-4.7-2.8-4.7-5.6c-0.5-3.3-4.7-0.9-9.8,5.6c-10.7,12.6-10.3,29.8,0.9,62
		c4.7,11.7,9.3,17.2,15.4,17.2c8.4,0,8.4,0.5,0.5,9.3c-6.5,7.5-7,9.3-1.9,9.8c3.7,0.5,12.1,1.4,19.6,2.3c10.3,0.9,12.6-0.5,13.1-8.9
		c0.5-7.9,0.9-8.4,2.8-1.9c1.4,5.1,6.5,7.9,15.8,7.9c14,0,16.8,4.2,8.4,12.6c-3.7,3.7-3.3,6.1,0.9,8.9c3.3,1.9,6.5,1.4,7.9-1.9
		c0.9-3.3,3.7-5.6,6.5-5.6c2.3,0,3.7,2.8,2.8,5.6c-1.9,5.1,6.5,17.7,11.7,17.7c0.9,0,1.4-5.6,0.5-12.6l-1.9-13.1l5.6,12.6
		c5.1,12.1,26.6,24.7,41,23.8c3.7-0.5,8.4,1.9,10.7,4.7c2.8,4.2,4.7,4.2,6.5,0c3.3-9.3,9.8-7,13.5,4.7c1.4,5.6,5.6,13.5,8.9,17.2
		c3.3,3.7,7,12.1,7.9,18.6c0.9,6.5,4.7,11.7,8.4,11.7c8.4,0,18.6,18.2,18.6,32.6c0,6.1-2.8,12.1-5.6,13.5c-3.7,1.9-4.2,3.7-1.4,5.1
		s4.2,11.7,3.3,23.3c-1.9,20.5-2.8,21.4-26.6,32.6c-13.5,6.5-26.6,11.7-28.9,11.2c-1.9-0.5-7,0-10.7,1.9
		c-25.2,9.8-43.4,12.6-59.2,9.8c-22.8-4.2-26.1-6.1-20-13.5c3.3-4.2,2.8-7.5-1.9-11.2c-5.6-4.7-7.5-3.7-10.3,5.1
		c-1.9,6.1-3.3,13.5-2.8,16.8C8845.8,14417.5,8841.6,14416.6,8838.3,14407.7z M8870.5,14382.6c1.4-2.3,0.5-4.7-1.9-4.7
		c-2.8,0-5.1,2.3-5.1,4.7c0,2.8,0.9,4.7,1.9,4.7C8866.8,14387.2,8869.1,14385.4,8870.5,14382.6z M8987.5,14365.3
		c-5.1-5.1-7.9,1.9-4.2,10.7c3.3,8.4,3.7,8.4,5.1,0.5C8989.4,14371.8,8988.9,14366.7,8987.5,14365.3z M8974.4,14321
		c-10.3-6.1-13.1-4.2-13.1,8.9c0,12.1,0,12.1,9.3,3.7C8978.2,14327.1,8978.6,14324.3,8974.4,14321z M8672.4,14322
		c0-2.3-1.9-4.7-4.7-4.7c-2.3,0-4.7,2.3-4.7,4.7c0,2.8,2.3,4.7,4.7,4.7C8670.5,14326.6,8672.4,14324.8,8672.4,14322z M8671,14293.1
		c-1.4-3.7-2.8-2.3-2.8,2.8c-0.5,5.1,0.9,7.9,2.3,6.1C8671.9,14300.5,8672.4,14296.3,8671,14293.1z M8706.9,14296.3
		c-1.9-3.7-5.1-5.6-7.5-4.2c-2.8,1.9-2.3,4.7,1.4,7C8709.7,14304.7,8709.7,14304.3,8706.9,14296.3z M8967.9,14286.5
		c12.1-4.7,8.4-11.2-6.1-11.2c-7.5,0-14.5,2.8-16.3,7C8942.7,14289.8,8953.9,14291.7,8967.9,14286.5z M8700.4,14267.9
		c0-3.7-1.9-5.6-4.7-4.2c-2.3,1.4-4.7,4.7-4.7,7.5c0,2.3,2.3,4.2,4.7,4.2C8698.5,14275.4,8700.4,14272.1,8700.4,14267.9z
		 M8849.5,14186.8c0-2.3-1.9-4.7-4.7-4.7c-2.3,0-4.7,2.3-4.7,4.7c0,2.8,2.3,4.7,4.7,4.7
		C8847.7,14191.5,8849.5,14189.6,8849.5,14186.8z"/>
	<path d="M11788,14384.9c-1.9-4.7-6.5-6.1-14-4.2c-9.8,2.8-11.2,1.4-11.2-11.2c0-7.9,3.3-29.8,7-48.5c5.1-24.2,7-58.3,7-118.9
		c-0.5-46.6,0-86.7,0.9-88.6c1.4-1.9,1.4-12.1,0.5-22.4c-3.3-42.4-3.3-124.5,0-126.8c1.9-0.9,3.3,0.5,3.3,2.8c0,2.8,3.3,5.1,7.5,5.1
		c5.1,0,6.5,2.8,4.2,9.8l-3.3,9.8l9.8-9.8c8.4-8.4,11.7-8.9,19.6-4.7c8.9,4.2,9.3,3.7,6.5-4.7c-4.2-13.1,0.5-12.1,14.9,3.3
		c14.9,15.8,24.7,38.2,24.7,56.9c0,20,7.5,33.1,17.2,29.4c6.1-2.3,7-0.9,4.2,9.8c-1.9,7.9-0.9,15.8,2.3,19.6
		c5.6,7,15.4,4.2,11.2-3.3c-1.9-2.3,0-4.2,3.7-4.2c9.8,0,23.3,17.2,20,25.6c-4.2,11.2,11.2,14.9,18.6,4.7c3.3-4.7,5.1-9.8,4.2-11.7
		c-1.4-1.9,0.9-6.1,4.7-9.3c4.7-3.7,5.6-7.9,2.3-13.5c-3.7-7.5-2.8-18.6,2.8-37.3c1.4-4.7,3.7-5.1,8.4-0.9c5.1,4.2,7,1.4,9.8-16.8
		c2.3-12.6,4.7-18.6,5.6-14c3.7,15.8,10.7,7.5,10.7-13.5c0-19.6,0.9-21.4,16.8-28c34.5-14.5,41.5-14,52.7,5.6
		c14,23.3,11.7,46.6-5.6,59.7c-10.7,7.9-14.5,8.4-21.9,4.2c-7.5-5.1-9.3-3.7-13.5,8.9c-4.7,13.5-4.7,14,6.5,12.1
		c15.8-3.3,14.5,3.3-2.3,13.5c-15.4,8.9-18.2,15.4-6.5,15.4c6.1,0,6.5,1.4,2.3,6.5c-3.3,3.7-5.1,9.3-4.7,13.1
		c0.5,3.3-0.5,9.8-2.8,14.5c-1.9,4.7-0.9,10.7,2.3,14.9c3.3,3.7,3.7,7,1.4,7s-7,5.1-9.8,11.7c-2.8,6.5-8.4,11.7-12.6,11.7
		c-3.7,0-7,2.3-7,5.1s4.2,3.7,9.3,1.9c10.7-3.3,11.2-0.9,4.2,13.1c-8.9,17.2-24.2,31.2-33.6,31.2c-5.1,0-16.8-8.4-25.6-19.1
		c-11.7-13.5-17.2-17.2-20-13.1c-1.9,3.7-4.2,5.1-5.1,4.2c-0.9-1.4-7.5-11.2-14.5-21.9c-7-10.7-18.6-22.8-26.6-27
		c-7.5-3.7-19.1-16.3-26.1-28c-6.5-11.7-13.5-21-15.4-21c-6.5,0-5.1,31.2,1.9,37.3c8.9,7.5,8.9,22.8,0,34.5s-8.9,14.5,0,23.3
		c6.1,6.1,6.5,8.9,1.4,16.8c-5.1,8.4-4.7,10.7,5.1,18.2l11.2,8.4l-10.3,14.9c-5.6,7.9-12.6,14.5-15.4,14.5c-3.3,0-3.3,2.3,0.5,6.5
		c2.8,3.3,4.2,9.3,2.8,13.5c-1.9,3.7,0.5,14.5,4.2,24.2c9.3,21.9,9.8,21-4.2,21h-11.7l9.3,17.2c9.3,18.2,12.6,36.8,5.1,32.2
		c-2.3-1.4-5.1,1.4-6.5,6.5c-1.9,7-6.5,9.3-19.1,9.3C11796.9,14391.9,11789.4,14389.6,11788,14384.9z M11947.9,14178.9
		c-4.2-4.2-8.9-6.5-10.7-5.1c-4.7,4.7,2.8,13.1,11.2,13.1C11955.4,14186.8,11955.4,14186.3,11947.9,14178.9z M11835.1,14144.8
		c1.4-2.3,0.5-4.7-1.9-4.7c-2.8,0-5.1,2.3-5.1,4.7c0,2.8,0.9,4.7,1.9,4.7C11831.4,14149.5,11833.7,14147.6,11835.1,14144.8z
		 M11858,14030.6c-3.3-17.7-13.1-25.6-21.4-17.2c-3.3,3.3-0.9,8.9,7.5,18.2c6.5,7,12.1,14.9,12.1,17.2c0,2.3,1.4,3.3,2.8,1.9
		C11860.3,14049.3,11859.8,14040,11858,14030.6z M11830.5,14028.8c-1.4-2.8-6.5-5.1-10.7-5.1c-7,0.5-7,0.9,0.9,7
		C11830.5,14038.1,11835.6,14036.7,11830.5,14028.8z M12050.5,14008.7c-1.4-3.7-2.8-2.3-2.8,2.8c-0.5,5.1,0.9,7.9,2.3,6.1
		C12051.4,14016.2,12051.9,14012,12050.5,14008.7z"/>
	<path d="M1838.8,14288.4c-7.5-13.5-14-27-14-29.8c0-2.8-12.6-19.6-28-37.3c-15.4-17.7-28-34.5-28-37.3c0-2.3-6.1-10.7-14-18.2
		c-7.5-7.5-14-15.4-14-17.7c0-2.8-6.1-10.7-14-18.2c-7.5-7-14-15.4-14-18.2s-9.8-14.9-21.4-27c-12.1-11.7-24.7-28-28-36.4
		c-3.7-8.4-12.6-19.6-20.5-25.6c-7.5-5.6-14.9-14-16.8-18.6c-1.4-4.7-4.7-7.5-7-6.1c-2.3,1.9-5.6-0.5-7.5-4.7
		c-1.4-4.7-7-12.6-12.6-18.2c-5.6-5.6-15.8-18.2-23.8-27.5c-7.5-9.8-26.1-30.8-41-46.6l-27.5-28.9l3.3-22.4
		c2.3-19.1,5.6-28,19.1-48.9c0.5-0.9,7.9-2.3,16.3-3.7c22.4-2.8,37.8,5.1,59.2,29.8c45.2,52.7,90.9,103.9,111.4,124.9
		c7.9,8.4,15.8,19.1,17.2,23.8c1.4,4.7,8.9,14.9,16.8,23.3c7.5,8.4,14,15.8,14,17.2c0,0.9,5.6,8.4,13.1,15.8
		c7,7.5,21.9,26.1,33.6,41c11.7,14.9,36.4,45.2,55,67.6c18.2,22.4,33.6,43.8,33.6,47.5c0,3.7,3.7,11.7,8.4,17.7
		c4.2,6.1,14.5,24.2,21.9,40.6l13.5,28.9l-14.9,14c-13.1,11.7-48.9,23.3-71.8,23.3C1854.7,14312.6,1846.8,14301.5,1838.8,14288.4z"
		/>
	<path d="M9499.8,14256.7c-1.9-2.8-6.5-4.7-10.7-4.2c-14.5,1.9-35.9-6.1-46.6-17.2c-6.1-6.1-14.9-11.2-20-11.2
		c-6.5,0-8.9-2.3-7.5-6.5c1.4-3.7,1.4-7.5-0.5-8.4c-6.1-2.8-25.2-32.6-28.9-45.7c-2.3-7.5-1.9-14.9,0.9-17.7s2.8-5.6-0.5-7.5
		c-2.8-1.9-5.1-11.2-5.1-21c0-9.8-2.3-24.7-5.1-32.6c-4.2-11.2-4.2-16.3,0-20.5c2.8-2.8,5.1-9.8,5.1-15.8s2.3-10.7,4.7-10.7
		c2.8,0,4.7,2.3,4.7,4.7c0,2.8,3.3,4.7,7,4.7c3.7,0,7-3.3,7-7s3.3-7,7-7s7,3.7,7,7.9c0,7,0.5,7,8.4,0c4.2-4.2,12.6-11.7,18.6-17.2
		c5.6-5.1,9.3-11.7,7.9-14c-1.9-2.8,4.2-4.7,13.5-4.7c8.9,0,17.7-1.9,19.1-4.7c1.4-2.3,11.2-4.7,21-4.7c12.1,0,19.6-2.8,22.8-7.9
		c3.7-7.5,5.1-7,13.5,3.3c7.9,9.8,8.4,12.1,2.8,15.4s-6.1,5.6-1.4,10.7c5.6,7,25.2,9.3,21,2.3c-1.9-2.3-0.9-9.3,1.4-15.4l4.7-10.7
		l0.5,11.7v11.7l8.9-11.7c7.5-9.3,9.8-10.3,16.3-5.1c6.1,5.1,8.9,5.1,14.9,0c6.5-5.1,8.4-4.7,14,2.8c3.7,4.7,6.5,10.3,6.5,12.6
		c0,7.5,9.3,3.3,9.8-4.2c0-7,0.9-7,4.2,0.9c2.3,5.1,4.2,7.5,4.2,5.6c0.5-1.9,4.7-1.4,10.3,1.4c7.5,4.2,8.9,7.9,6.5,19.1
		c-2.3,9.8-1.4,13.5,3.3,13.5s4.2,1.4-0.9,5.1c-6.1,4.2-6.1,4.7,0,2.8c3.7-0.9,6.5-5.6,5.6-10.3c-0.9-4.7,0.5-6.5,3.3-4.7
		c2.8,1.4,5.1,7.9,5.1,14.5c0,8.9,2.3,11.2,13.1,11.7c7,0,9.8,1.4,7,2.8c-10.3,3.7-6.5,15.4,5.6,20c7.5,2.8,10.7,6.5,8.9,11.7
		c-1.9,3.7,0,10.3,3.3,14.5c6.1,7.5,8.4,50.3,3.3,55.9c-1.9,1.4-10.3-3.7-18.6-11.7c-8.4-7.9-16.3-14.5-17.7-14.5
		s-2.3,12.1-2.3,26.6v27l-23.3,11.7c-12.6,6.5-25.2,14.5-27,17.7c-2.3,3.3-6.1,4.2-8.9,2.8c-2.8-1.9-6.5,0-8.9,3.3
		c-2.8,5.1-5.1,5.1-9.3,0.9c-4.7-4.7-7.9-4.2-14.9,2.3c-8.4,7.5-8.9,7.5-7.5-1.4c1.4-5.6-0.9-9.8-6.1-10.7c-5.1-0.9-8.4,1.4-8.4,5.6
		s-1.9,7.5-4.7,7.5c-2.3,0-4.7-1.9-4.7-4.7c0-2.3-1.9-4.7-4.7-4.7c-2.3,0-4.7,4.2-4.7,9.3c0,11.2-6.1,12.1-14,2.3
		c-3.7-4.2-4.7-13.1-2.3-25.2c2.3-14.9,4.7-17.7,12.1-15.8c6.5,1.9,8.4,5.1,6.5,11.2c-1.9,6.1-0.5,8.9,4.2,8.9c5.1,0,7.5-4.2,7.5-14
		c0-15.4,7-20.5,33.6-24.7c19.1-2.8,50.3-25.2,50.3-35.9c0-6.1,0.5-6.1,4.7,0c4.2,6.1,5.1,6.1,9.3,0c6.1-9.3,6.1-18.6-0.5-18.6
		c-2.3,0-3.3,2.3-1.9,4.7c1.4,2.8,0.5,4.7-2.3,4.7c-9.3,0-13.5-20.5-6.1-28.9c5.1-6.1,6.1-11.2,2.8-21l-4.7-13.1l-5.6,10.7
		c-6.5,12.6-14.5,13.5-14.5,1.4c0-6.5-2.3-8.4-8.9-6.5c-7,1.9-9.8-0.9-12.1-12.6c-1.9-7.9-5.6-13.5-7.9-13.1
		c-2.8,0.9-10.3-3.3-16.3-9.3c-10.7-10.7-14-11.2-43.8-8.4c-39.2,3.7-83.9,20.5-90.9,34.5c-2.8,5.6-8.4,14-12.6,18.6
		c-9.3,10.3-10.3,21.4-1.9,28c3.3,2.8,5.6,11.2,5.1,18.2c-0.5,10.3,5.6,18.6,27.5,40.1c15.4,14.5,31.7,26.6,35.9,26.6
		s11.7,4.2,15.8,8.9c7,7.5,7.5,11.7,2.8,28c-3.7,14-7.5,19.1-14,19.1C9506.8,14261.4,9501.2,14259,9499.8,14256.7z M9418.2,14182.6
		c-5.6-10.7-14-13.1-14-4.2c0,7.5,15.8,24.2,17.7,18.2C9422.9,14194.2,9421,14187.7,9418.2,14182.6z M9520.8,14008.7
		c0-7.5-1.4-8.9-5.1-5.1c-2.8,2.8-3.7,7.5-2.3,10.3C9518.4,14021.8,9520.8,14019.9,9520.8,14008.7z"/>
	<path d="M10098.8,14252c0-2.3-6.1-4.7-13.5-4.7c-7.9,0-15.4-1.9-16.8-4.7c-1.4-2.3-6.5-4.7-11.2-4.7c-4.2,0-12.6-5.1-18.2-11.7
		c-5.6-6.5-14.5-11.7-20-11.7s-8.4-1.9-6.1-5.1c1.4-2.8,1.4-6.5-0.9-8.4c-15.4-10.7-30.3-35.9-29.4-48.9c0.5-7.9-0.5-17.7-1.9-21.4
		c-2.8-7-8.4-52.2-8.4-65.3c0-14.5,6.5-37.3,10.3-37.3c2.3,0,4.2,2.3,4.2,4.7c0,2.8,3.3,4.7,7,4.7c3.7,0,7-3.3,7-7
		c0-3.7,3.3-7,7.5-7c4.7,0,6.5,2.8,4.7,7c-3.3,8.4,4.7,9.3,9.8,0.9c1.9-3.3,9.3-9.3,16.8-14c7-4.7,12.6-10.7,12.6-14.5
		c0-6.1,28-12.1,56.4-12.1c7.5,0,14.9-3.3,17.7-7.9c3.7-7.5,5.1-7,13.5,3.3c7.5,9.3,8.4,12.1,2.8,13.1c-7.9,1.9-8.4,6.5-0.9,14
		c6.5,6.5,24.2,7.5,20.5,1.4c-1.9-2.3-0.9-9.3,1.4-15.4l4.7-10.7l0.5,11.7v11.7l8.9-11.7c7.5-9.3,9.8-10.3,16.3-5.1
		c6.1,5.1,8.9,5.1,14.9,0c6.5-5.1,8.4-4.7,14,2.8c3.7,4.7,6.5,10.3,6.5,12.6c0,7.5,9.3,3.3,9.8-4.2c0-7,0.9-7,3.3-1.4
		c1.9,3.7,6.1,7,9.3,7.5c15.4,1.4,15.8,2.3,13.1,16.3c-2.3,12.6-1.4,14,6.1,11.2c7.5-2.3,9.3,0,10.7,10.3
		c0.9,10.3,3.7,13.1,12.1,12.1c5.6-0.9,10.3,0.9,10.3,3.3c0,2.8-1.9,4.7-4.7,4.7c-9.3,0-4.2,9.8,7.5,14c8.4,3.3,11.2,7,9.3,12.1
		c-1.9,4.2-0.9,10.3,0.9,13.1c7,8.9,10.3,28.9,7.5,44.3c-2.3,11.7-4.7,14-11.7,12.1c-6.1-1.9-8.9-0.5-8.9,4.2c0,4.2-1.9,7.5-4.7,7.5
		c-5.6,0-6.1-4.7-0.5-13.5c3.3-4.7,1.9-8.9-3.3-13.1c-12.1-8.9-12.6-7.9-11.2,14.9c2.3,25.2-2.3,31.7-32.6,47.1
		c-12.1,6.1-22.4,13.5-22.4,16.3c0,2.3-2.3,3.3-5.1,1.4c-2.8-1.4-7-0.5-8.9,3.3c-3.3,4.7-5.1,4.7-11.7-0.5
		c-6.1-5.1-8.4-4.7-14.5,2.8c-6.5,8.9-6.5,8.9-5.6-0.5c0.9-5.6-1.9-9.8-6.5-10.7c-5.1-0.9-8.4,1.4-8.4,5.6s-1.9,7.5-4.7,7.5
		c-2.3,0-4.7-2.3-4.7-5.1s-2.8-4.2-5.6-2.8c-3.3,0.9-5.6,5.6-4.7,9.8c1.4,7,0,7-7.9,1.9c-10.7-6.5-11.2-9.3-7-30.8
		c2.3-10.3,5.1-14,12.1-13.5c7,0.5,8.4,3.3,6.1,11.2c-1.9,7.5-0.5,10.7,4.7,10.7c4.7,0,7-4.7,7-15.8c0-17.2,1.4-18.2,32.6-23.3
		c9.8-1.9,24.2-10.3,36.8-21.4c11.2-10.3,21.9-17.7,23.8-16.3c1.9,1.4,5.1-0.9,6.5-5.1c4.2-10.7,3.7-12.6-4.2-9.3
		c-10.3,3.7-14-9.3-7-22.4c3.3-6.5,4.2-15.4,2.3-21.4l-3.3-10.7l-8.9,11.2l-8.9,11.2l-2.8-10.7c-1.9-7-5.6-9.8-9.8-8.4
		c-4.7,1.9-8.9-1.9-12.1-11.2c-2.8-7.5-7-14-9.3-14c-1.9,0-9.8-4.7-17.2-9.8c-11.7-8.9-17.2-9.8-45.2-7.5
		c-42.4,4.2-81.6,17.7-88.1,30.3c-2.8,5.6-8.4,14-12.6,18.6c-8.9,9.8-10.3,24.7-3.3,31.7c2.3,2.3,5.1,11.7,6.1,20
		c0.9,8.4,5.1,17.2,8.9,19.6c14.9,8.4,41,34,41,40.6c0,4.7,3.3,6.1,10.3,4.2c10.7-2.8,27,7.5,27,17.2c0,2.8-2.3,13.1-5.1,22.8
		c-3.3,12.1-7,17.2-13.5,17.2C10103,14256.7,10098.8,14254.8,10098.8,14252z M10089.4,14233.4c0-2.3-0.9-4.7-1.9-4.7
		c-1.4,0-3.7,2.3-5.1,4.7c-1.4,2.8-0.5,4.7,1.9,4.7C10087.1,14238.1,10089.4,14236.2,10089.4,14233.4z M10147.7,14210.1
		c1.4-2.3,0.5-4.7-1.9-4.7c-2.8,0-5.1,2.3-5.1,4.7c0,2.8,0.9,4.7,1.9,4.7C10144,14214.8,10146.3,14212.9,10147.7,14210.1z
		 M10019.5,14185.4c0-3.7-4.2-10.3-9.3-14.9c-8.9-8.4-9.3-7.9-9.3,0.5c0,9.3,7.9,20.5,14.9,20.5
		C10017.7,14191.5,10019.5,14188.7,10019.5,14185.4z M10115.5,13997.1c-5.1-5.1-8.9,2.8-5.1,11.2c3.7,7.9,3.7,7.9,5.6,0
		C10117.4,14003.6,10116.9,13998.5,10115.5,13997.1z"/>
	<path d="M10920.6,14250.2c-6.1-3.3-14.9-9.8-20-14.5c-21.4-19.6-64.3-23.8-68.5-6.5c-1.4,4.7-4.7,7.5-7.5,5.6
		c-2.3-1.4-7.5,0.9-11.2,6.1c-4.2,6.1-7.5,7-9.8,3.7c-4.7-7.5-24.2-13.1-24.2-7c0,2.8-1.9,5.1-4.7,5.1c-2.3,0-3.3-3.3-1.4-7.5
		c2.3-6.1,0.9-7-6.1-4.7c-7.9,2.3-8.9,0.5-8.9-19.6c0-25.6,9.3-41,27-45.2c15.4-4.2,25.6-33.1,17.2-48.9c-2.8-5.6-3.7-14-2.3-18.6
		c1.9-5.1,2.8-16.3,3.3-24.2c0-8.4,1.9-22.4,4.7-30.8c3.3-10.7,2.8-17.2-0.5-21.4c-5.6-6.5-1.9-53.1,5.1-62
		c2.3-3.3,3.3-7.9,1.4-10.7c-4.2-7,7-5.1,25.6,3.7c12.1,6.1,15.8,11.2,15.4,18.6c-0.9,6.1,1.4,10.3,5.1,10.3c9.8,0,11.7,10.3,6.5,35
		c-3.3,15.8-3.3,25.2,0.5,33.6c4.2,8.9,4.2,15.8,0,28.4c-2.8,8.9-4.2,25.2-2.3,36.4c1.4,13.1,0.5,20.5-2.8,21.4
		c-3.3,1.4-4.2,5.6-2.3,10.3c2.3,5.1,6.1,7.5,10.7,5.6c3.7-1.4,6.1-0.9,4.7,1.4c-3.7,6.1,9.8,15.8,17.7,13.1
		c3.7-1.4,8.4,1.9,11.7,8.9c4.2,9.3,8.4,11.2,23.8,11.2c12.6,0,18.6-1.9,18.2-5.6c-1.4-13.1,0.9-17.7,9.3-17.7c4.7,0,9.8-3.3,11.7-7
		c6.1-15.8,29.8-0.5,27,17.2c-1.4,7.5,0,8.9,8.4,6.1c8.9-2.8,9.8-1.4,8.4,10.3c-0.9,7-3.3,12.1-5.1,10.7c-1.9-1.4-7,4.7-11.2,13.5
		c-4.7,8.9-11.7,16.8-16.3,18.2c-4.7,0.9-8.4,3.7-8.4,6.1c0,5.1-25.2,18.2-33.6,17.7C10933.6,14255.8,10926.2,14253,10920.6,14250.2
		z M10812,14210.1c0-2.3-1.9-4.7-4.7-4.7c-2.3,0-4.7,2.3-4.7,4.7c0,2.8,2.3,4.7,4.7,4.7
		C10810.1,14214.8,10812,14212.9,10812,14210.1z M10819.4,13964.4c-4.7-4.7-8.9,2.3-4.7,8.4c2.8,5.1,3.7,5.1,5.6,0
		C10821.3,13969.6,10820.8,13965.8,10819.4,13964.4z"/>
	<path d="M11172.7,14240.4c-7-6.5-14-11.7-15.4-11.7c-1.4,0.5-11.7,2.3-22.8,4.2c-16.8,3.3-20,2.8-19.1-3.7
		c1.4-15.8-6.1-28-19.6-30.8c-8.4-1.9-13.5-6.1-13.5-10.7c0-4.7-4.7-10.3-10.3-12.6c-13.5-6.1-16.3-20-5.1-28c7.9-6.5,7.9-6.5-1.4-7
		c-5.6,0-12.6-3.3-15.8-7c-5.1-6.1-4.7-8.4,2.8-14c7.9-6.1,8.4-6.5,0.9-7c-6.1,0-8.9-4.2-9.3-14.9c-1.4-24.7,0.9-42.9,5.6-47.5
		c2.8-2.8,4.7-10.3,4.7-16.8c0-6.5,2.8-15.8,6.1-20.5c5.6-7.9,6.5-7.9,9.3-0.9c1.9,4.2,6.5,7.5,10.3,7.5c6.1,0,7-2.8,4.7-14
		c-2.3-10.7-0.5-16.3,8.9-25.6c6.5-6.5,16.3-11.7,22.4-12.1c27-0.9,47.5,1.9,53.1,7.5c7.5,7,32.2,13.5,38.2,9.8
		c2.3-1.4,7.5,1.9,11.7,7c6.5,7.5,6.5,8.9,0.9,8.9c-9.8,0-8.9,2.8,8.4,23.3c16.3,20,21.9,22.8,21.9,11.2c0-4.2,5.1-11.7,11.2-16.3
		s12.1-14,14-20c1.9-8.4,8.9-13.5,24.7-19.6c12.6-4.7,25.6-10.7,29.8-14.5c15.4-12.6,40.6-3.7,40.6,14.5c0,9.8-4.2,13.1-20.5,19.6
		c-11.2,4.2-20.5,10.7-20.5,14.5c0,3.7-5.6,11.7-12.1,17.7c-7,6.5-11.2,14.5-9.8,18.2c1.4,3.7-0.5,9.3-4.2,12.1
		c-3.7,3.3-6.5,8.4-6.5,11.7c0,2.8-3.3,12.1-7.5,20c-5.1,10.7-5.6,16.8-2.3,23.8c4.7,7.9,3.3,9.3-7.5,10.7
		c-6.5,0.9-13.5,4.2-14.5,7.9c-1.4,4.7,0.5,5.6,7.9,3.7c8.9-2.3,9.8-0.9,7,7.5c-1.4,5.6-7.5,17.7-13.1,26.6s-12.6,21.9-15.4,28.4
		c-7,15.8-41.5,43.8-44.7,35.9c-1.9-4.2-2.8-3.3-2.8,1.4c-0.5,6.5-9.3,13.5-16.8,13.5
		C11186.3,14252,11179.7,14246.9,11172.7,14240.4z M11216.1,14185.9c8.9-7.5,5.6-55-5.1-76c-3.7-7-6.1-14.9-4.7-17.2
		c1.4-2.3,0-7.5-3.7-11.7c-4.2-5.6-4.2-7,0-4.2c3.3,1.9,5.6,0.5,5.6-4.2c0-5.1-2.8-7-8.4-5.1c-6.1,2.3-10.3-0.5-14-8.4
		c-2.8-7-10.7-12.6-19.1-14.5c-7.9-1.9-15.4-5.1-16.8-7.5c-1.9-2.3-10.3-4.2-19.1-4.2c-19.6,0-43.8,20.5-35,29.4
		c7.9,7.9,6.1,12.6-3.7,12.6c-15.8,0-14.9,7.5,3.3,19.1c9.3,6.1,17.2,13.5,17.2,15.8c0,2.8,1.9,7.5,4.2,10.7
		c1.9,3.3,2.3,10.7,0.9,16.8c-1.9,7.9,1.4,14.5,14.9,27c9.3,9.3,23.8,20,31.2,24.2C11179.3,14197,11204.4,14195.6,11216.1,14185.9z
		 M11240.8,14047c0-2.3-1.9-4.7-4.7-4.7c-2.3,0-4.7,2.3-4.7,4.7c0,2.8,2.3,4.7,4.7,4.7
		C11238.9,14051.6,11240.8,14049.7,11240.8,14047z M11170.9,14035.8c0-1.4-1.9-3.7-4.7-5.1c-2.3-1.4-4.7-0.5-4.7,1.9
		c0,2.8,2.3,5.1,4.7,5.1C11169,14037.6,11170.9,14036.7,11170.9,14035.8z"/>
	<path d="M9697.9,14180.3c0-3.7,2.3-8.4,4.7-9.8c2.8-1.4,4.7,0.5,4.7,4.2c0,3.7-1.9,8.4-4.7,9.8
		C9700.2,14185.9,9697.9,14184,9697.9,14180.3z"/>
	<path d="M10410.6,13861.9c-6.1-7.5-5.6-7.9,1.9-1.9c7.5,6.1,9.8,9.8,6.1,9.8C10417.6,13869.8,10413.9,13866.1,10410.6,13861.9z"/>
	<path d="M10391,13847.9c-4.7-4.2-3.7-15.4,0.9-15.4c2.3,0,5.1,4.2,6.5,9.3C10400.8,13851.2,10397.1,13854,10391,13847.9z"/>
</g>
</svg>
